<?xml version="1.0" encoding="utf-8" standalone="no"?>
<!DOCTYPE svg PUBLIC "-//W3C//DTD SVG 1.1//EN"
  "http://www.w3.org/Graphics/SVG/1.1/DTD/svg11.dtd">
<svg xmlns:xlink="http://www.w3.org/1999/xlink" width="432pt" height="432pt" viewBox="0 0 432 432" xmlns="http://www.w3.org/2000/svg" version="1.1">
 <metadata>
  <rdf:RDF xmlns:dc="http://purl.org/dc/elements/1.1/" xmlns:cc="http://creativecommons.org/ns#" xmlns:rdf="http://www.w3.org/1999/02/22-rdf-syntax-ns#">
   <cc:Work>
    <dc:type rdf:resource="http://purl.org/dc/dcmitype/StillImage"/>
    <dc:date>2024-11-14T15:18:43.363762</dc:date>
    <dc:format>image/svg+xml</dc:format>
    <dc:creator>
     <cc:Agent>
      <dc:title>Matplotlib v3.9.2, https://matplotlib.org/</dc:title>
     </cc:Agent>
    </dc:creator>
   </cc:Work>
  </rdf:RDF>
 </metadata>
 <defs>
  <style type="text/css">*{stroke-linejoin: round; stroke-linecap: butt}</style>
 </defs>
 <g id="figure_1">
  <g id="patch_1">
   <path d="M 0 432 
L 432 432 
L 432 0 
L 0 0 
z
" style="fill: #ffffff"/>
  </g>
  <g id="axes_1">
   <g id="patch_2">
    <path d="M 111.893724 213.402683 
L 111.893724 213.402683 
" clip-path="url(#p77b2ae1fdb)" style="fill: #1f77b4; stroke: #000000; stroke-linejoin: miter"/>
   </g>
   <g id="patch_3">
    <path d="M 111.893724 213.402683 
L 111.893724 213.402683 
" clip-path="url(#p77b2ae1fdb)" style="fill: #1f77b4; stroke: #000000; stroke-linejoin: miter"/>
   </g>
   <g id="patch_4">
    <path d="M 115.779334 213.402683 
L 111.893724 213.402683 
" clip-path="url(#p77b2ae1fdb)" style="fill: #1f77b4; stroke: #000000; stroke-linejoin: miter"/>
   </g>
   <g id="patch_5">
    <path d="M 115.779334 213.402683 
L 111.893724 213.402683 
" clip-path="url(#p77b2ae1fdb)" style="fill: #1f77b4; stroke: #000000; stroke-linejoin: miter"/>
   </g>
   <g id="patch_6">
    <path d="M 111.893724 213.402683 
L 110.872303 214.460136 
" clip-path="url(#p77b2ae1fdb)" style="fill: #1f77b4; stroke: #000000; stroke-linejoin: miter"/>
   </g>
   <g id="patch_7">
    <path d="M 111.893724 213.402683 
L 110.872303 214.460136 
" clip-path="url(#p77b2ae1fdb)" style="fill: #1f77b4; stroke: #000000; stroke-linejoin: miter"/>
   </g>
   <g id="patch_8">
    <path d="M 123.550554 213.402683 
L 119.664944 213.402683 
" clip-path="url(#p77b2ae1fdb)" style="fill: #1f77b4; stroke: #000000; stroke-linejoin: miter"/>
   </g>
   <g id="patch_9">
    <path d="M 123.550554 213.402683 
L 119.664944 213.402683 
" clip-path="url(#p77b2ae1fdb)" style="fill: #1f77b4; stroke: #000000; stroke-linejoin: miter"/>
   </g>
   <g id="patch_10">
    <path d="M 131.321774 213.402683 
L 127.436164 213.402683 
" clip-path="url(#p77b2ae1fdb)" style="fill: #1f77b4; stroke: #000000; stroke-linejoin: miter"/>
   </g>
   <g id="patch_11">
    <path d="M 131.321774 213.402683 
L 127.436164 213.402683 
" clip-path="url(#p77b2ae1fdb)" style="fill: #1f77b4; stroke: #000000; stroke-linejoin: miter"/>
   </g>
   <g id="patch_12">
    <path d="M 139.092994 213.402683 
L 135.207384 213.402683 
" clip-path="url(#p77b2ae1fdb)" style="fill: #1f77b4; stroke: #000000; stroke-linejoin: miter"/>
   </g>
   <g id="patch_13">
    <path d="M 139.092994 213.402683 
L 135.207384 213.402683 
" clip-path="url(#p77b2ae1fdb)" style="fill: #1f77b4; stroke: #000000; stroke-linejoin: miter"/>
   </g>
   <g id="patch_14">
    <path d="M 146.864214 213.402683 
L 142.978604 213.402683 
" clip-path="url(#p77b2ae1fdb)" style="fill: #1f77b4; stroke: #000000; stroke-linejoin: miter"/>
   </g>
   <g id="patch_15">
    <path d="M 146.864214 213.402683 
L 142.978604 213.402683 
" clip-path="url(#p77b2ae1fdb)" style="fill: #1f77b4; stroke: #000000; stroke-linejoin: miter"/>
   </g>
   <g id="patch_16">
    <path d="M 109.850881 215.517589 
L 108.82946 216.575042 
" clip-path="url(#p77b2ae1fdb)" style="fill: #1f77b4; stroke: #000000; stroke-linejoin: miter"/>
   </g>
   <g id="patch_17">
    <path d="M 109.850881 215.517589 
L 108.82946 216.575042 
" clip-path="url(#p77b2ae1fdb)" style="fill: #1f77b4; stroke: #000000; stroke-linejoin: miter"/>
   </g>
   <g id="patch_18">
    <path d="M 154.635434 213.402683 
L 150.749824 213.402683 
" clip-path="url(#p77b2ae1fdb)" style="fill: #1f77b4; stroke: #000000; stroke-linejoin: miter"/>
   </g>
   <g id="patch_19">
    <path d="M 154.635434 213.402683 
L 150.749824 213.402683 
" clip-path="url(#p77b2ae1fdb)" style="fill: #1f77b4; stroke: #000000; stroke-linejoin: miter"/>
   </g>
   <g id="patch_20">
    <path d="M 162.406654 213.402683 
L 158.521044 213.402683 
" clip-path="url(#p77b2ae1fdb)" style="fill: #1f77b4; stroke: #000000; stroke-linejoin: miter"/>
   </g>
   <g id="patch_21">
    <path d="M 162.406654 213.402683 
L 158.521044 213.402683 
" clip-path="url(#p77b2ae1fdb)" style="fill: #1f77b4; stroke: #000000; stroke-linejoin: miter"/>
   </g>
   <g id="patch_22">
    <path d="M 170.177874 213.402683 
L 166.292264 213.402683 
" clip-path="url(#p77b2ae1fdb)" style="fill: #1f77b4; stroke: #000000; stroke-linejoin: miter"/>
   </g>
   <g id="patch_23">
    <path d="M 170.177874 213.402683 
L 166.292264 213.402683 
" clip-path="url(#p77b2ae1fdb)" style="fill: #1f77b4; stroke: #000000; stroke-linejoin: miter"/>
   </g>
   <g id="patch_24">
    <path d="M 107.808039 217.632495 
L 106.786618 218.689948 
" clip-path="url(#p77b2ae1fdb)" style="fill: #1f77b4; stroke: #000000; stroke-linejoin: miter"/>
   </g>
   <g id="patch_25">
    <path d="M 107.808039 217.632495 
L 106.786618 218.689948 
" clip-path="url(#p77b2ae1fdb)" style="fill: #1f77b4; stroke: #000000; stroke-linejoin: miter"/>
   </g>
   <g id="patch_26">
    <path d="M 177.949094 213.402683 
L 174.063484 213.402683 
" clip-path="url(#p77b2ae1fdb)" style="fill: #1f77b4; stroke: #000000; stroke-linejoin: miter"/>
   </g>
   <g id="patch_27">
    <path d="M 177.949094 213.402683 
L 174.063484 213.402683 
" clip-path="url(#p77b2ae1fdb)" style="fill: #1f77b4; stroke: #000000; stroke-linejoin: miter"/>
   </g>
   <g id="patch_28">
    <path d="M 185.720314 213.402683 
L 181.834704 213.402683 
" clip-path="url(#p77b2ae1fdb)" style="fill: #1f77b4; stroke: #000000; stroke-linejoin: miter"/>
   </g>
   <g id="patch_29">
    <path d="M 185.720314 213.402683 
L 181.834704 213.402683 
" clip-path="url(#p77b2ae1fdb)" style="fill: #1f77b4; stroke: #000000; stroke-linejoin: miter"/>
   </g>
   <g id="patch_30">
    <path d="M 193.491534 213.402683 
L 189.605924 213.402683 
" clip-path="url(#p77b2ae1fdb)" style="fill: #1f77b4; stroke: #000000; stroke-linejoin: miter"/>
   </g>
   <g id="patch_31">
    <path d="M 193.491534 213.402683 
L 189.605924 213.402683 
" clip-path="url(#p77b2ae1fdb)" style="fill: #1f77b4; stroke: #000000; stroke-linejoin: miter"/>
   </g>
   <g id="patch_32">
    <path d="M 201.262754 213.402683 
L 197.377144 213.402683 
" clip-path="url(#p77b2ae1fdb)" style="fill: #1f77b4; stroke: #000000; stroke-linejoin: miter"/>
   </g>
   <g id="patch_33">
    <path d="M 201.262754 213.402683 
L 197.377144 213.402683 
" clip-path="url(#p77b2ae1fdb)" style="fill: #1f77b4; stroke: #000000; stroke-linejoin: miter"/>
   </g>
   <g id="patch_34">
    <path d="M 105.765197 219.747401 
L 104.743776 220.804854 
" clip-path="url(#p77b2ae1fdb)" style="fill: #1f77b4; stroke: #000000; stroke-linejoin: miter"/>
   </g>
   <g id="patch_35">
    <path d="M 105.765197 219.747401 
L 104.743776 220.804854 
" clip-path="url(#p77b2ae1fdb)" style="fill: #1f77b4; stroke: #000000; stroke-linejoin: miter"/>
   </g>
   <g id="patch_36">
    <path d="M 209.033974 213.402683 
L 205.148364 213.402683 
" clip-path="url(#p77b2ae1fdb)" style="fill: #1f77b4; stroke: #000000; stroke-linejoin: miter"/>
   </g>
   <g id="patch_37">
    <path d="M 209.033974 213.402683 
L 205.148364 213.402683 
" clip-path="url(#p77b2ae1fdb)" style="fill: #1f77b4; stroke: #000000; stroke-linejoin: miter"/>
   </g>
   <g id="patch_38">
    <path d="M 216.805194 213.402683 
L 212.919584 213.402683 
" clip-path="url(#p77b2ae1fdb)" style="fill: #1f77b4; stroke: #000000; stroke-linejoin: miter"/>
   </g>
   <g id="patch_39">
    <path d="M 216.805194 213.402683 
L 212.919584 213.402683 
" clip-path="url(#p77b2ae1fdb)" style="fill: #1f77b4; stroke: #000000; stroke-linejoin: miter"/>
   </g>
   <g id="patch_40">
    <path d="M 224.576414 213.402683 
L 220.690804 213.402683 
" clip-path="url(#p77b2ae1fdb)" style="fill: #1f77b4; stroke: #000000; stroke-linejoin: miter"/>
   </g>
   <g id="patch_41">
    <path d="M 224.576414 213.402683 
L 220.690804 213.402683 
" clip-path="url(#p77b2ae1fdb)" style="fill: #1f77b4; stroke: #000000; stroke-linejoin: miter"/>
   </g>
   <g id="patch_42">
    <path d="M 232.347634 213.402683 
L 228.462024 213.402683 
" clip-path="url(#p77b2ae1fdb)" style="fill: #1f77b4; stroke: #000000; stroke-linejoin: miter"/>
   </g>
   <g id="patch_43">
    <path d="M 232.347634 213.402683 
L 228.462024 213.402683 
" clip-path="url(#p77b2ae1fdb)" style="fill: #1f77b4; stroke: #000000; stroke-linejoin: miter"/>
   </g>
   <g id="patch_44">
    <path d="M 103.722355 221.862307 
L 102.700933 222.91976 
" clip-path="url(#p77b2ae1fdb)" style="fill: #1f77b4; stroke: #000000; stroke-linejoin: miter"/>
   </g>
   <g id="patch_45">
    <path d="M 103.722355 221.862307 
L 102.700933 222.91976 
" clip-path="url(#p77b2ae1fdb)" style="fill: #1f77b4; stroke: #000000; stroke-linejoin: miter"/>
   </g>
   <g id="patch_46">
    <path d="M 240.118854 213.402683 
L 236.233244 213.402683 
" clip-path="url(#p77b2ae1fdb)" style="fill: #1f77b4; stroke: #000000; stroke-linejoin: miter"/>
   </g>
   <g id="patch_47">
    <path d="M 240.118854 213.402683 
L 236.233244 213.402683 
" clip-path="url(#p77b2ae1fdb)" style="fill: #1f77b4; stroke: #000000; stroke-linejoin: miter"/>
   </g>
   <g id="patch_48">
    <path d="M 247.890074 213.402683 
L 244.004464 213.402683 
" clip-path="url(#p77b2ae1fdb)" style="fill: #1f77b4; stroke: #000000; stroke-linejoin: miter"/>
   </g>
   <g id="patch_49">
    <path d="M 247.890074 213.402683 
L 244.004464 213.402683 
" clip-path="url(#p77b2ae1fdb)" style="fill: #1f77b4; stroke: #000000; stroke-linejoin: miter"/>
   </g>
   <g id="patch_50">
    <path d="M 255.661294 213.402683 
L 251.775684 213.402683 
" clip-path="url(#p77b2ae1fdb)" style="fill: #1f77b4; stroke: #000000; stroke-linejoin: miter"/>
   </g>
   <g id="patch_51">
    <path d="M 255.661294 213.402683 
L 251.775684 213.402683 
" clip-path="url(#p77b2ae1fdb)" style="fill: #1f77b4; stroke: #000000; stroke-linejoin: miter"/>
   </g>
   <g id="patch_52">
    <path d="M 263.432514 213.402683 
L 259.546904 213.402683 
" clip-path="url(#p77b2ae1fdb)" style="fill: #1f77b4; stroke: #000000; stroke-linejoin: miter"/>
   </g>
   <g id="patch_53">
    <path d="M 263.432514 213.402683 
L 259.546904 213.402683 
" clip-path="url(#p77b2ae1fdb)" style="fill: #1f77b4; stroke: #000000; stroke-linejoin: miter"/>
   </g>
   <g id="patch_54">
    <path d="M 271.203734 213.402683 
L 267.318124 213.402683 
" clip-path="url(#p77b2ae1fdb)" style="fill: #1f77b4; stroke: #000000; stroke-linejoin: miter"/>
   </g>
   <g id="patch_55">
    <path d="M 271.203734 213.402683 
L 267.318124 213.402683 
" clip-path="url(#p77b2ae1fdb)" style="fill: #1f77b4; stroke: #000000; stroke-linejoin: miter"/>
   </g>
   <g id="patch_56">
    <path d="M 278.974954 213.402683 
L 275.089344 213.402683 
" clip-path="url(#p77b2ae1fdb)" style="fill: #1f77b4; stroke: #000000; stroke-linejoin: miter"/>
   </g>
   <g id="patch_57">
    <path d="M 278.974954 213.402683 
L 275.089344 213.402683 
" clip-path="url(#p77b2ae1fdb)" style="fill: #1f77b4; stroke: #000000; stroke-linejoin: miter"/>
   </g>
   <g id="patch_58">
    <path d="M 286.746174 213.402683 
L 282.860564 213.402683 
" clip-path="url(#p77b2ae1fdb)" style="fill: #1f77b4; stroke: #000000; stroke-linejoin: miter"/>
   </g>
   <g id="patch_59">
    <path d="M 286.746174 213.402683 
L 282.860564 213.402683 
" clip-path="url(#p77b2ae1fdb)" style="fill: #1f77b4; stroke: #000000; stroke-linejoin: miter"/>
   </g>
   <g id="patch_60">
    <path d="M 294.517394 213.402683 
L 290.631784 213.402683 
" clip-path="url(#p77b2ae1fdb)" style="fill: #1f77b4; stroke: #000000; stroke-linejoin: miter"/>
   </g>
   <g id="patch_61">
    <path d="M 294.517394 213.402683 
L 290.631784 213.402683 
" clip-path="url(#p77b2ae1fdb)" style="fill: #1f77b4; stroke: #000000; stroke-linejoin: miter"/>
   </g>
   <g id="patch_62">
    <path d="M 302.288614 213.402683 
L 298.403004 213.402683 
" clip-path="url(#p77b2ae1fdb)" style="fill: #1f77b4; stroke: #000000; stroke-linejoin: miter"/>
   </g>
   <g id="patch_63">
    <path d="M 302.288614 213.402683 
L 298.403004 213.402683 
" clip-path="url(#p77b2ae1fdb)" style="fill: #1f77b4; stroke: #000000; stroke-linejoin: miter"/>
   </g>
   <g id="patch_64">
    <path d="M 310.059834 213.402683 
L 306.174224 213.402683 
" clip-path="url(#p77b2ae1fdb)" style="fill: #1f77b4; stroke: #000000; stroke-linejoin: miter"/>
   </g>
   <g id="patch_65">
    <path d="M 310.059834 213.402683 
L 306.174224 213.402683 
" clip-path="url(#p77b2ae1fdb)" style="fill: #1f77b4; stroke: #000000; stroke-linejoin: miter"/>
   </g>
   <g id="patch_66">
    <path d="M 317.831054 213.402683 
L 313.945444 213.402683 
" clip-path="url(#p77b2ae1fdb)" style="fill: #1f77b4; stroke: #000000; stroke-linejoin: miter"/>
   </g>
   <g id="patch_67">
    <path d="M 317.831054 213.402683 
L 313.945444 213.402683 
" clip-path="url(#p77b2ae1fdb)" style="fill: #1f77b4; stroke: #000000; stroke-linejoin: miter"/>
   </g>
   <g id="patch_68">
    <path d="M 325.602274 213.402683 
L 321.716664 213.402683 
" clip-path="url(#p77b2ae1fdb)" style="fill: #1f77b4; stroke: #000000; stroke-linejoin: miter"/>
   </g>
   <g id="patch_69">
    <path d="M 325.602274 213.402683 
L 321.716664 213.402683 
" clip-path="url(#p77b2ae1fdb)" style="fill: #1f77b4; stroke: #000000; stroke-linejoin: miter"/>
   </g>
   <g id="patch_70">
    <path d="M 151.182413 224.474887 
C 161.142074 224.474887 170.695154 220.517872 177.737698 213.475328 
C 184.780241 206.432784 188.737257 196.879704 188.737257 186.920043 
C 188.737257 176.960382 184.780241 167.407302 177.737698 160.364758 
C 170.695154 153.322214 161.142074 149.365199 151.182413 149.365199 
C 141.222752 149.365199 131.669672 153.322214 124.627128 160.364758 
C 117.584584 167.407302 113.627569 176.960382 113.627569 186.920043 
C 113.627569 196.879704 117.584584 206.432784 124.627128 213.475328 
C 131.669672 220.517872 141.222752 224.474887 151.182413 224.474887 
z
" clip-path="url(#p77b2ae1fdb)" style="fill: #c0c0c0; stroke: #000000; stroke-linejoin: miter"/>
   </g>
   <g id="patch_71">
    <path d="M 333.373494 213.402683 
L 329.487884 213.402683 
" clip-path="url(#p77b2ae1fdb)" style="fill: #1f77b4; stroke: #000000; stroke-linejoin: miter"/>
   </g>
   <g id="patch_72">
    <path d="M 333.373494 213.402683 
L 329.487884 213.402683 
" clip-path="url(#p77b2ae1fdb)" style="fill: #1f77b4; stroke: #000000; stroke-linejoin: miter"/>
   </g>
   <g id="patch_73">
    <path d="M 341.144714 213.402683 
L 337.259104 213.402683 
" clip-path="url(#p77b2ae1fdb)" style="fill: #1f77b4; stroke: #000000; stroke-linejoin: miter"/>
   </g>
   <g id="patch_74">
    <path d="M 341.144714 213.402683 
L 337.259104 213.402683 
" clip-path="url(#p77b2ae1fdb)" style="fill: #1f77b4; stroke: #000000; stroke-linejoin: miter"/>
   </g>
   <g id="patch_75">
    <path d="M 348.915934 213.402683 
L 345.030324 213.402683 
" clip-path="url(#p77b2ae1fdb)" style="fill: #1f77b4; stroke: #000000; stroke-linejoin: miter"/>
   </g>
   <g id="patch_76">
    <path d="M 348.915934 213.402683 
L 345.030324 213.402683 
" clip-path="url(#p77b2ae1fdb)" style="fill: #1f77b4; stroke: #000000; stroke-linejoin: miter"/>
   </g>
   <g id="patch_77">
    <path d="M 356.687154 213.402683 
L 352.801544 213.402683 
" clip-path="url(#p77b2ae1fdb)" style="fill: #1f77b4; stroke: #000000; stroke-linejoin: miter"/>
   </g>
   <g id="patch_78">
    <path d="M 356.687154 213.402683 
L 352.801544 213.402683 
" clip-path="url(#p77b2ae1fdb)" style="fill: #1f77b4; stroke: #000000; stroke-linejoin: miter"/>
   </g>
   <g id="patch_79">
    <path d="M 364.458374 213.402683 
L 360.572764 213.402683 
" clip-path="url(#p77b2ae1fdb)" style="fill: #1f77b4; stroke: #000000; stroke-linejoin: miter"/>
   </g>
   <g id="patch_80">
    <path d="M 364.458374 213.402683 
L 360.572764 213.402683 
" clip-path="url(#p77b2ae1fdb)" style="fill: #1f77b4; stroke: #000000; stroke-linejoin: miter"/>
   </g>
   <g id="patch_81">
    <path d="M 372.229594 213.402683 
L 368.343984 213.402683 
" clip-path="url(#p77b2ae1fdb)" style="fill: #1f77b4; stroke: #000000; stroke-linejoin: miter"/>
   </g>
   <g id="patch_82">
    <path d="M 372.229594 213.402683 
L 368.343984 213.402683 
" clip-path="url(#p77b2ae1fdb)" style="fill: #1f77b4; stroke: #000000; stroke-linejoin: miter"/>
   </g>
   <g id="patch_83">
    <path d="M 93.167669 270.344165 
C 103.12733 270.344165 112.68041 266.38715 119.722954 259.344606 
C 126.765498 252.302062 130.722513 242.748982 130.722513 232.789321 
C 130.722513 222.82966 126.765498 213.27658 119.722954 206.234036 
C 112.68041 199.191492 103.12733 195.234477 93.167669 195.234477 
C 83.208008 195.234477 73.654928 199.191492 66.612385 206.234036 
C 59.569841 213.27658 55.612825 222.82966 55.612825 232.789321 
C 55.612825 242.748982 59.569841 252.302062 66.612385 259.344606 
C 73.654928 266.38715 83.208008 270.344165 93.167669 270.344165 
z
" clip-path="url(#p77b2ae1fdb)" style="fill: #c0c0c0; stroke: #000000; stroke-linejoin: miter"/>
   </g>
   <g id="patch_84">
    <path d="M 380.000814 213.402683 
L 376.115204 213.402683 
" clip-path="url(#p77b2ae1fdb)" style="fill: #1f77b4; stroke: #000000; stroke-linejoin: miter"/>
   </g>
   <g id="patch_85">
    <path d="M 380.000814 213.402683 
L 376.115204 213.402683 
" clip-path="url(#p77b2ae1fdb)" style="fill: #1f77b4; stroke: #000000; stroke-linejoin: miter"/>
   </g>
   <g id="patch_86">
    <path d="M 387.772034 213.402683 
L 383.886424 213.402683 
" clip-path="url(#p77b2ae1fdb)" style="fill: #1f77b4; stroke: #000000; stroke-linejoin: miter"/>
   </g>
   <g id="patch_87">
    <path d="M 387.772034 213.402683 
L 383.886424 213.402683 
" clip-path="url(#p77b2ae1fdb)" style="fill: #1f77b4; stroke: #000000; stroke-linejoin: miter"/>
   </g>
   <g id="patch_88">
    <path d="M 395.543254 213.402683 
L 391.657644 213.402683 
" clip-path="url(#p77b2ae1fdb)" style="fill: #1f77b4; stroke: #000000; stroke-linejoin: miter"/>
   </g>
   <g id="patch_89">
    <path d="M 395.543254 213.402683 
L 391.657644 213.402683 
" clip-path="url(#p77b2ae1fdb)" style="fill: #1f77b4; stroke: #000000; stroke-linejoin: miter"/>
   </g>
   <g id="patch_90">
    <path d="M 403.314474 213.402683 
L 399.428864 213.402683 
" clip-path="url(#p77b2ae1fdb)" style="fill: #1f77b4; stroke: #000000; stroke-linejoin: miter"/>
   </g>
   <g id="patch_91">
    <path d="M 403.314474 213.402683 
L 399.428864 213.402683 
" clip-path="url(#p77b2ae1fdb)" style="fill: #1f77b4; stroke: #000000; stroke-linejoin: miter"/>
   </g>
   <g id="patch_92">
    <path d="M 411.085694 213.402683 
L 407.200084 213.402683 
" clip-path="url(#p77b2ae1fdb)" style="fill: #1f77b4; stroke: #000000; stroke-linejoin: miter"/>
   </g>
   <g id="patch_93">
    <path d="M 411.085694 213.402683 
L 407.200084 213.402683 
" clip-path="url(#p77b2ae1fdb)" style="fill: #1f77b4; stroke: #000000; stroke-linejoin: miter"/>
   </g>
   <g id="patch_94">
    <path d="M 418.856914 213.402683 
L 414.971304 213.402683 
" clip-path="url(#p77b2ae1fdb)" style="fill: #1f77b4; stroke: #000000; stroke-linejoin: miter"/>
   </g>
   <g id="patch_95">
    <path d="M 418.856914 213.402683 
L 414.971304 213.402683 
" clip-path="url(#p77b2ae1fdb)" style="fill: #1f77b4; stroke: #000000; stroke-linejoin: miter"/>
   </g>
   <g id="patch_96">
    <path d="M 418.856914 213.402683 
L 418.856914 213.402683 
" clip-path="url(#p77b2ae1fdb)" style="fill: #1f77b4; stroke: #000000; stroke-linejoin: miter"/>
   </g>
   <g id="patch_97">
    <path d="M 418.856914 213.402683 
L 418.856914 213.402683 
" clip-path="url(#p77b2ae1fdb)" style="fill: #1f77b4; stroke: #000000; stroke-linejoin: miter"/>
   </g>
   <g id="patch_98">
    <path d="M 418.856914 213.402683 
L 417.835493 214.460136 
" clip-path="url(#p77b2ae1fdb)" style="fill: #1f77b4; stroke: #000000; stroke-linejoin: miter"/>
   </g>
   <g id="patch_99">
    <path d="M 418.856914 213.402683 
L 417.835493 214.460136 
" clip-path="url(#p77b2ae1fdb)" style="fill: #1f77b4; stroke: #000000; stroke-linejoin: miter"/>
   </g>
   <g id="patch_100">
    <path d="M 253.503476 224.474887 
C 263.463137 224.474887 273.016217 220.517872 280.058761 213.475328 
C 287.101305 206.432784 291.05832 196.879704 291.05832 186.920043 
C 291.05832 176.960382 287.101305 167.407302 280.058761 160.364758 
C 273.016217 153.322214 263.463137 149.365199 253.503476 149.365199 
C 243.543815 149.365199 233.990735 153.322214 226.948191 160.364758 
C 219.905648 167.407302 215.948632 176.960382 215.948632 186.920043 
C 215.948632 196.879704 219.905648 206.432784 226.948191 213.475328 
C 233.990735 220.517872 243.543815 224.474887 253.503476 224.474887 
z
" clip-path="url(#p77b2ae1fdb)" style="fill: #c0c0c0; stroke: #000000; stroke-linejoin: miter"/>
   </g>
   <g id="patch_101">
    <path d="M 88.150038 197.992247 
C 98.109699 197.992247 107.662779 194.035232 114.705323 186.992688 
C 121.747867 179.950144 125.704882 170.397064 125.704882 160.437403 
C 125.704882 150.477742 121.747867 140.924662 114.705323 133.882118 
C 107.662779 126.839574 98.109699 122.882559 88.150038 122.882559 
C 78.190377 122.882559 68.637297 126.839574 61.594753 133.882118 
C 54.55221 140.924662 50.595194 150.477742 50.595194 160.437403 
C 50.595194 170.397064 54.55221 179.950144 61.594753 186.992688 
C 68.637297 194.035232 78.190377 197.992247 88.150038 197.992247 
z
" clip-path="url(#p77b2ae1fdb)" style="fill: #c0c0c0; stroke: #000000; stroke-linejoin: miter"/>
   </g>
   <g id="patch_102">
    <path d="M 416.814072 215.517589 
L 415.792651 216.575042 
" clip-path="url(#p77b2ae1fdb)" style="fill: #1f77b4; stroke: #000000; stroke-linejoin: miter"/>
   </g>
   <g id="patch_103">
    <path d="M 416.814072 215.517589 
L 415.792651 216.575042 
" clip-path="url(#p77b2ae1fdb)" style="fill: #1f77b4; stroke: #000000; stroke-linejoin: miter"/>
   </g>
   <g id="patch_104">
    <path d="M 195.488733 270.344165 
C 205.448394 270.344165 215.001474 266.38715 222.044018 259.344606 
C 229.086562 252.302062 233.043577 242.748982 233.043577 232.789321 
C 233.043577 222.82966 229.086562 213.27658 222.044018 206.234036 
C 215.001474 199.191492 205.448394 195.234477 195.488733 195.234477 
C 185.529072 195.234477 175.975992 199.191492 168.933448 206.234036 
C 161.890904 213.27658 157.933889 222.82966 157.933889 232.789321 
C 157.933889 242.748982 161.890904 252.302062 168.933448 259.344606 
C 175.975992 266.38715 185.529072 270.344165 195.488733 270.344165 
z
" clip-path="url(#p77b2ae1fdb)" style="fill: #c0c0c0; stroke: #000000; stroke-linejoin: miter"/>
   </g>
   <g id="patch_105">
    <path d="M 414.77123 217.632495 
L 413.749809 218.689948 
" clip-path="url(#p77b2ae1fdb)" style="fill: #1f77b4; stroke: #000000; stroke-linejoin: miter"/>
   </g>
   <g id="patch_106">
    <path d="M 414.77123 217.632495 
L 413.749809 218.689948 
" clip-path="url(#p77b2ae1fdb)" style="fill: #1f77b4; stroke: #000000; stroke-linejoin: miter"/>
   </g>
   <g id="patch_107">
    <path d="M 412.728387 219.747401 
L 411.706966 220.804854 
" clip-path="url(#p77b2ae1fdb)" style="fill: #1f77b4; stroke: #000000; stroke-linejoin: miter"/>
   </g>
   <g id="patch_108">
    <path d="M 412.728387 219.747401 
L 411.706966 220.804854 
" clip-path="url(#p77b2ae1fdb)" style="fill: #1f77b4; stroke: #000000; stroke-linejoin: miter"/>
   </g>
   <g id="patch_109">
    <path d="M 355.82454 224.474887 
C 365.784201 224.474887 375.337281 220.517872 382.379825 213.475328 
C 389.422368 206.432784 393.379384 196.879704 393.379384 186.920043 
C 393.379384 176.960382 389.422368 167.407302 382.379825 160.364758 
C 375.337281 153.322214 365.784201 149.365199 355.82454 149.365199 
C 345.864879 149.365199 336.311799 153.322214 329.269255 160.364758 
C 322.226711 167.407302 318.269696 176.960382 318.269696 186.920043 
C 318.269696 196.879704 322.226711 206.432784 329.269255 213.475328 
C 336.311799 220.517872 345.864879 224.474887 355.82454 224.474887 
z
" clip-path="url(#p77b2ae1fdb)" style="fill: #c0c0c0; stroke: #000000; stroke-linejoin: miter"/>
   </g>
   <g id="patch_110">
    <path d="M 410.685545 221.862307 
L 409.664124 222.91976 
" clip-path="url(#p77b2ae1fdb)" style="fill: #1f77b4; stroke: #000000; stroke-linejoin: miter"/>
   </g>
   <g id="patch_111">
    <path d="M 410.685545 221.862307 
L 409.664124 222.91976 
" clip-path="url(#p77b2ae1fdb)" style="fill: #1f77b4; stroke: #000000; stroke-linejoin: miter"/>
   </g>
   <g id="patch_112">
    <path d="M 190.471102 197.992247 
C 200.430763 197.992247 209.983843 194.035232 217.026387 186.992688 
C 224.06893 179.950144 228.025946 170.397064 228.025946 160.437403 
C 228.025946 150.477742 224.06893 140.924662 217.026387 133.882118 
C 209.983843 126.839574 200.430763 122.882559 190.471102 122.882559 
C 180.511441 122.882559 170.958361 126.839574 163.915817 133.882118 
C 156.873273 140.924662 152.916258 150.477742 152.916258 160.437403 
C 152.916258 170.397064 156.873273 179.950144 163.915817 186.992688 
C 170.958361 194.035232 180.511441 197.992247 190.471102 197.992247 
z
" clip-path="url(#p77b2ae1fdb)" style="fill: #c0c0c0; stroke: #000000; stroke-linejoin: miter"/>
   </g>
   <g id="patch_113">
    <path d="M 408.642703 223.977213 
L 407.621282 225.034666 
" clip-path="url(#p77b2ae1fdb)" style="fill: #1f77b4; stroke: #000000; stroke-linejoin: miter"/>
   </g>
   <g id="patch_114">
    <path d="M 408.642703 223.977213 
L 407.621282 225.034666 
" clip-path="url(#p77b2ae1fdb)" style="fill: #1f77b4; stroke: #000000; stroke-linejoin: miter"/>
   </g>
   <g id="patch_115">
    <path d="M 297.809796 270.344165 
C 307.769457 270.344165 317.322537 266.38715 324.365081 259.344606 
C 331.407625 252.302062 335.36464 242.748982 335.36464 232.789321 
C 335.36464 222.82966 331.407625 213.27658 324.365081 206.234036 
C 317.322537 199.191492 307.769457 195.234477 297.809796 195.234477 
C 287.850135 195.234477 278.297055 199.191492 271.254512 206.234036 
C 264.211968 213.27658 260.254953 222.82966 260.254953 232.789321 
C 260.254953 242.748982 264.211968 252.302062 271.254512 259.344606 
C 278.297055 266.38715 287.850135 270.344165 297.809796 270.344165 
z
" clip-path="url(#p77b2ae1fdb)" style="fill: #c0c0c0; stroke: #000000; stroke-linejoin: miter"/>
   </g>
   <g id="patch_116">
    <path d="M 132.456358 243.861525 
C 142.416019 243.861525 151.969099 239.90451 159.011643 232.861966 
C 166.054187 225.819422 170.011202 216.266342 170.011202 206.306681 
C 170.011202 196.34702 166.054187 186.79394 159.011643 179.751396 
C 151.969099 172.708852 142.416019 168.751837 132.456358 168.751837 
C 122.496697 168.751837 112.943617 172.708852 105.901074 179.751396 
C 98.85853 186.79394 94.901514 196.34702 94.901514 206.306681 
C 94.901514 216.266342 98.85853 225.819422 105.901074 232.861966 
C 112.943617 239.90451 122.496697 243.861525 132.456358 243.861525 
z
" clip-path="url(#p77b2ae1fdb)" style="fill: #c0c0c0; stroke: #000000; stroke-linejoin: miter"/>
   </g>
   <g id="patch_117">
    <path d="M 406.599861 226.092119 
L 405.578439 227.149572 
" clip-path="url(#p77b2ae1fdb)" style="fill: #1f77b4; stroke: #000000; stroke-linejoin: miter"/>
   </g>
   <g id="patch_118">
    <path d="M 406.599861 226.092119 
L 405.578439 227.149572 
" clip-path="url(#p77b2ae1fdb)" style="fill: #1f77b4; stroke: #000000; stroke-linejoin: miter"/>
   </g>
   <g id="patch_119">
    <path d="M 404.557018 228.207025 
L 403.535597 229.264478 
" clip-path="url(#p77b2ae1fdb)" style="fill: #1f77b4; stroke: #000000; stroke-linejoin: miter"/>
   </g>
   <g id="patch_120">
    <path d="M 404.557018 228.207025 
L 403.535597 229.264478 
" clip-path="url(#p77b2ae1fdb)" style="fill: #1f77b4; stroke: #000000; stroke-linejoin: miter"/>
   </g>
   <g id="patch_121">
    <path d="M 74.441615 289.730803 
C 84.401276 289.730803 93.954356 285.773788 100.9969 278.731244 
C 108.039444 271.6887 111.996459 262.13562 111.996459 252.175959 
C 111.996459 242.216298 108.039444 232.663218 100.9969 225.620674 
C 93.954356 218.57813 84.401276 214.621115 74.441615 214.621115 
C 64.481954 214.621115 54.928874 218.57813 47.88633 225.620674 
C 40.843786 232.663218 36.886771 242.216298 36.886771 252.175959 
C 36.886771 262.13562 40.843786 271.6887 47.88633 278.731244 
C 54.928874 285.773788 64.481954 289.730803 74.441615 289.730803 
z
" clip-path="url(#p77b2ae1fdb)" style="fill: #c0c0c0; stroke: #000000; stroke-linejoin: miter"/>
   </g>
   <g id="patch_122">
    <path d="M 292.792165 197.992247 
C 302.751826 197.992247 312.304906 194.035232 319.34745 186.992688 
C 326.389994 179.950144 330.347009 170.397064 330.347009 160.437403 
C 330.347009 150.477742 326.389994 140.924662 319.34745 133.882118 
C 312.304906 126.839574 302.751826 122.882559 292.792165 122.882559 
C 282.832504 122.882559 273.279424 126.839574 266.236881 133.882118 
C 259.194337 140.924662 255.237321 150.477742 255.237321 160.437403 
C 255.237321 170.397064 259.194337 179.950144 266.236881 186.992688 
C 273.279424 194.035232 282.832504 197.992247 292.792165 197.992247 
z
" clip-path="url(#p77b2ae1fdb)" style="fill: #c0c0c0; stroke: #000000; stroke-linejoin: miter"/>
   </g>
   <g id="patch_123">
    <path d="M 402.514176 230.321931 
L 401.492755 231.379384 
" clip-path="url(#p77b2ae1fdb)" style="fill: #1f77b4; stroke: #000000; stroke-linejoin: miter"/>
   </g>
   <g id="patch_124">
    <path d="M 402.514176 230.321931 
L 401.492755 231.379384 
" clip-path="url(#p77b2ae1fdb)" style="fill: #1f77b4; stroke: #000000; stroke-linejoin: miter"/>
   </g>
   <g id="patch_125">
    <path d="M 400.471334 232.436837 
L 399.449913 233.49429 
" clip-path="url(#p77b2ae1fdb)" style="fill: #1f77b4; stroke: #000000; stroke-linejoin: miter"/>
   </g>
   <g id="patch_126">
    <path d="M 400.471334 232.436837 
L 399.449913 233.49429 
" clip-path="url(#p77b2ae1fdb)" style="fill: #1f77b4; stroke: #000000; stroke-linejoin: miter"/>
   </g>
   <g id="patch_127">
    <path d="M 234.777422 243.861525 
C 244.737083 243.861525 254.290163 239.90451 261.332707 232.861966 
C 268.375251 225.819422 272.332266 216.266342 272.332266 206.306681 
C 272.332266 196.34702 268.375251 186.79394 261.332707 179.751396 
C 254.290163 172.708852 244.737083 168.751837 234.777422 168.751837 
C 224.817761 168.751837 215.264681 172.708852 208.222137 179.751396 
C 201.179593 186.79394 197.222578 196.34702 197.222578 206.306681 
C 197.222578 216.266342 201.179593 225.819422 208.222137 232.861966 
C 215.264681 239.90451 224.817761 243.861525 234.777422 243.861525 
z
" clip-path="url(#p77b2ae1fdb)" style="fill: #c0c0c0; stroke: #000000; stroke-linejoin: miter"/>
   </g>
   <g id="patch_128">
    <path d="M 69.423984 217.378885 
C 79.383645 217.378885 88.936725 213.42187 95.979269 206.379326 
C 103.021813 199.336782 106.978828 189.783702 106.978828 179.824041 
C 106.978828 169.86438 103.021813 160.3113 95.979269 153.268756 
C 88.936725 146.226212 79.383645 142.269197 69.423984 142.269197 
C 59.464323 142.269197 49.911243 146.226212 42.868699 153.268756 
C 35.826155 160.3113 31.86914 169.86438 31.86914 179.824041 
C 31.86914 189.783702 35.826155 199.336782 42.868699 206.379326 
C 49.911243 213.42187 59.464323 217.378885 69.423984 217.378885 
z
" clip-path="url(#p77b2ae1fdb)" style="fill: #c0c0c0; stroke: #000000; stroke-linejoin: miter"/>
   </g>
   <g id="patch_129">
    <path d="M 398.428491 234.551743 
L 397.40707 235.609196 
" clip-path="url(#p77b2ae1fdb)" style="fill: #1f77b4; stroke: #000000; stroke-linejoin: miter"/>
   </g>
   <g id="patch_130">
    <path d="M 398.428491 234.551743 
L 397.40707 235.609196 
" clip-path="url(#p77b2ae1fdb)" style="fill: #1f77b4; stroke: #000000; stroke-linejoin: miter"/>
   </g>
   <g id="patch_131">
    <path d="M 176.762679 289.730803 
C 186.72234 289.730803 196.27542 285.773788 203.317963 278.731244 
C 210.360507 271.6887 214.317523 262.13562 214.317523 252.175959 
C 214.317523 242.216298 210.360507 232.663218 203.317963 225.620674 
C 196.27542 218.57813 186.72234 214.621115 176.762679 214.621115 
C 166.803018 214.621115 157.249938 218.57813 150.207394 225.620674 
C 143.16485 232.663218 139.207835 242.216298 139.207835 252.175959 
C 139.207835 262.13562 143.16485 271.6887 150.207394 278.731244 
C 157.249938 285.773788 166.803018 289.730803 176.762679 289.730803 
z
" clip-path="url(#p77b2ae1fdb)" style="fill: #c0c0c0; stroke: #000000; stroke-linejoin: miter"/>
   </g>
   <g id="patch_132">
    <path d="M 396.385649 236.666649 
L 395.364228 237.724102 
" clip-path="url(#p77b2ae1fdb)" style="fill: #1f77b4; stroke: #000000; stroke-linejoin: miter"/>
   </g>
   <g id="patch_133">
    <path d="M 396.385649 236.666649 
L 395.364228 237.724102 
" clip-path="url(#p77b2ae1fdb)" style="fill: #1f77b4; stroke: #000000; stroke-linejoin: miter"/>
   </g>
   <g id="patch_134">
    <path d="M 394.342807 238.781555 
L 393.321386 239.839008 
" clip-path="url(#p77b2ae1fdb)" style="fill: #1f77b4; stroke: #000000; stroke-linejoin: miter"/>
   </g>
   <g id="patch_135">
    <path d="M 394.342807 238.781555 
L 393.321386 239.839008 
" clip-path="url(#p77b2ae1fdb)" style="fill: #1f77b4; stroke: #000000; stroke-linejoin: miter"/>
   </g>
   <g id="patch_136">
    <path d="M 337.098486 243.861525 
C 347.058147 243.861525 356.611226 239.90451 363.65377 232.861966 
C 370.696314 225.819422 374.653329 216.266342 374.653329 206.306681 
C 374.653329 196.34702 370.696314 186.79394 363.65377 179.751396 
C 356.611226 172.708852 347.058147 168.751837 337.098486 168.751837 
C 327.138824 168.751837 317.585745 172.708852 310.543201 179.751396 
C 303.500657 186.79394 299.543642 196.34702 299.543642 206.306681 
C 299.543642 216.266342 303.500657 225.819422 310.543201 232.861966 
C 317.585745 239.90451 327.138824 243.861525 337.098486 243.861525 
z
" clip-path="url(#p77b2ae1fdb)" style="fill: #c0c0c0; stroke: #000000; stroke-linejoin: miter"/>
   </g>
   <g id="patch_137">
    <path d="M 392.299965 240.89646 
L 391.278543 241.953913 
" clip-path="url(#p77b2ae1fdb)" style="fill: #1f77b4; stroke: #000000; stroke-linejoin: miter"/>
   </g>
   <g id="patch_138">
    <path d="M 392.299965 240.89646 
L 391.278543 241.953913 
" clip-path="url(#p77b2ae1fdb)" style="fill: #1f77b4; stroke: #000000; stroke-linejoin: miter"/>
   </g>
   <g id="patch_139">
    <path d="M 171.745047 217.378885 
C 181.704709 217.378885 191.257788 213.42187 198.300332 206.379326 
C 205.342876 199.336782 209.299891 189.783702 209.299891 179.824041 
C 209.299891 169.86438 205.342876 160.3113 198.300332 153.268756 
C 191.257788 146.226212 181.704709 142.269197 171.745047 142.269197 
C 161.785386 142.269197 152.232307 146.226212 145.189763 153.268756 
C 138.147219 160.3113 134.190204 169.86438 134.190204 179.824041 
C 134.190204 189.783702 138.147219 199.336782 145.189763 206.379326 
C 152.232307 213.42187 161.785386 217.378885 171.745047 217.378885 
z
" clip-path="url(#p77b2ae1fdb)" style="fill: #c0c0c0; stroke: #000000; stroke-linejoin: miter"/>
   </g>
   <g id="patch_140">
    <path d="M 390.257122 243.011366 
L 389.235701 244.068819 
" clip-path="url(#p77b2ae1fdb)" style="fill: #1f77b4; stroke: #000000; stroke-linejoin: miter"/>
   </g>
   <g id="patch_141">
    <path d="M 390.257122 243.011366 
L 389.235701 244.068819 
" clip-path="url(#p77b2ae1fdb)" style="fill: #1f77b4; stroke: #000000; stroke-linejoin: miter"/>
   </g>
   <g id="patch_142">
    <path d="M 279.083742 289.730803 
C 289.043403 289.730803 298.596483 285.773788 305.639027 278.731244 
C 312.681571 271.6887 316.638586 262.13562 316.638586 252.175959 
C 316.638586 242.216298 312.681571 232.663218 305.639027 225.620674 
C 298.596483 218.57813 289.043403 214.621115 279.083742 214.621115 
C 269.124081 214.621115 259.571001 218.57813 252.528457 225.620674 
C 245.485913 232.663218 241.528898 242.216298 241.528898 252.175959 
C 241.528898 262.13562 245.485913 271.6887 252.528457 278.731244 
C 259.571001 285.773788 269.124081 289.730803 279.083742 289.730803 
z
" clip-path="url(#p77b2ae1fdb)" style="fill: #c0c0c0; stroke: #000000; stroke-linejoin: miter"/>
   </g>
   <g id="patch_143">
    <path d="M 113.730304 263.248163 
C 123.689965 263.248163 133.243045 259.291148 140.285589 252.248604 
C 147.328133 245.20606 151.285148 235.65298 151.285148 225.693319 
C 151.285148 215.733658 147.328133 206.180578 140.285589 199.138034 
C 133.243045 192.09549 123.689965 188.138475 113.730304 188.138475 
C 103.770643 188.138475 94.217563 192.09549 87.175019 199.138034 
C 80.132475 206.180578 76.17546 215.733658 76.17546 225.693319 
C 76.17546 235.65298 80.132475 245.20606 87.175019 252.248604 
C 94.217563 259.291148 103.770643 263.248163 113.730304 263.248163 
z
" clip-path="url(#p77b2ae1fdb)" style="fill: #c0c0c0; stroke: #000000; stroke-linejoin: miter"/>
   </g>
   <g id="patch_144">
    <path d="M 388.21428 245.126272 
L 387.192859 246.183725 
" clip-path="url(#p77b2ae1fdb)" style="fill: #1f77b4; stroke: #000000; stroke-linejoin: miter"/>
   </g>
   <g id="patch_145">
    <path d="M 388.21428 245.126272 
L 387.192859 246.183725 
" clip-path="url(#p77b2ae1fdb)" style="fill: #1f77b4; stroke: #000000; stroke-linejoin: miter"/>
   </g>
   <g id="patch_146">
    <path d="M 386.171438 247.241178 
L 385.150017 248.298631 
" clip-path="url(#p77b2ae1fdb)" style="fill: #1f77b4; stroke: #000000; stroke-linejoin: miter"/>
   </g>
   <g id="patch_147">
    <path d="M 386.171438 247.241178 
L 385.150017 248.298631 
" clip-path="url(#p77b2ae1fdb)" style="fill: #1f77b4; stroke: #000000; stroke-linejoin: miter"/>
   </g>
   <g id="patch_148">
    <path d="M 55.715561 309.117441 
C 65.675222 309.117441 75.228302 305.160426 82.270846 298.117882 
C 89.313389 291.075338 93.270405 281.522258 93.270405 271.562597 
C 93.270405 261.602936 89.313389 252.049856 82.270846 245.007312 
C 75.228302 237.964768 65.675222 234.007753 55.715561 234.007753 
C 45.7559 234.007753 36.20282 237.964768 29.160276 245.007312 
C 22.117732 252.049856 18.160717 261.602936 18.160717 271.562597 
C 18.160717 281.522258 22.117732 291.075338 29.160276 298.117882 
C 36.20282 305.160426 45.7559 309.117441 55.715561 309.117441 
z
" clip-path="url(#p77b2ae1fdb)" style="fill: #c0c0c0; stroke: #000000; stroke-linejoin: miter"/>
   </g>
   <g id="patch_149">
    <path d="M 274.066111 217.378885 
C 284.025772 217.378885 293.578852 213.42187 300.621396 206.379326 
C 307.66394 199.336782 311.620955 189.783702 311.620955 179.824041 
C 311.620955 169.86438 307.66394 160.3113 300.621396 153.268756 
C 293.578852 146.226212 284.025772 142.269197 274.066111 142.269197 
C 264.10645 142.269197 254.55337 146.226212 247.510826 153.268756 
C 240.468282 160.3113 236.511267 169.86438 236.511267 179.824041 
C 236.511267 189.783702 240.468282 199.336782 247.510826 206.379326 
C 254.55337 213.42187 264.10645 217.378885 274.066111 217.378885 
z
" clip-path="url(#p77b2ae1fdb)" style="fill: #c0c0c0; stroke: #000000; stroke-linejoin: miter"/>
   </g>
   <g id="patch_150">
    <path d="M 384.128595 249.356084 
L 383.107174 250.413537 
" clip-path="url(#p77b2ae1fdb)" style="fill: #1f77b4; stroke: #000000; stroke-linejoin: miter"/>
   </g>
   <g id="patch_151">
    <path d="M 384.128595 249.356084 
L 383.107174 250.413537 
" clip-path="url(#p77b2ae1fdb)" style="fill: #1f77b4; stroke: #000000; stroke-linejoin: miter"/>
   </g>
   <g id="patch_152">
    <path d="M 98.457271 271.562597 
L 94.571661 271.562597 
" clip-path="url(#p77b2ae1fdb)" style="fill: #1f77b4; stroke: #000000; stroke-linejoin: miter"/>
   </g>
   <g id="patch_153">
    <path d="M 98.457271 271.562597 
L 94.571661 271.562597 
" clip-path="url(#p77b2ae1fdb)" style="fill: #1f77b4; stroke: #000000; stroke-linejoin: miter"/>
   </g>
   <g id="patch_154">
    <path d="M 382.085753 251.47099 
L 381.064332 252.528443 
" clip-path="url(#p77b2ae1fdb)" style="fill: #1f77b4; stroke: #000000; stroke-linejoin: miter"/>
   </g>
   <g id="patch_155">
    <path d="M 382.085753 251.47099 
L 381.064332 252.528443 
" clip-path="url(#p77b2ae1fdb)" style="fill: #1f77b4; stroke: #000000; stroke-linejoin: miter"/>
   </g>
   <g id="patch_156">
    <path d="M 106.228491 271.562597 
L 102.342881 271.562597 
" clip-path="url(#p77b2ae1fdb)" style="fill: #1f77b4; stroke: #000000; stroke-linejoin: miter"/>
   </g>
   <g id="patch_157">
    <path d="M 106.228491 271.562597 
L 102.342881 271.562597 
" clip-path="url(#p77b2ae1fdb)" style="fill: #1f77b4; stroke: #000000; stroke-linejoin: miter"/>
   </g>
   <g id="patch_158">
    <path d="M 113.999711 271.562597 
L 110.114101 271.562597 
" clip-path="url(#p77b2ae1fdb)" style="fill: #1f77b4; stroke: #000000; stroke-linejoin: miter"/>
   </g>
   <g id="patch_159">
    <path d="M 113.999711 271.562597 
L 110.114101 271.562597 
" clip-path="url(#p77b2ae1fdb)" style="fill: #1f77b4; stroke: #000000; stroke-linejoin: miter"/>
   </g>
   <g id="patch_160">
    <path d="M 216.051368 263.248163 
C 226.011029 263.248163 235.564109 259.291148 242.606653 252.248604 
C 249.649196 245.20606 253.606212 235.65298 253.606212 225.693319 
C 253.606212 215.733658 249.649196 206.180578 242.606653 199.138034 
C 235.564109 192.09549 226.011029 188.138475 216.051368 188.138475 
C 206.091707 188.138475 196.538627 192.09549 189.496083 199.138034 
C 182.453539 206.180578 178.496524 215.733658 178.496524 225.693319 
C 178.496524 235.65298 182.453539 245.20606 189.496083 252.248604 
C 196.538627 259.291148 206.091707 263.248163 216.051368 263.248163 
z
" clip-path="url(#p77b2ae1fdb)" style="fill: #c0c0c0; stroke: #000000; stroke-linejoin: miter"/>
   </g>
   <g id="patch_161">
    <path d="M 121.770931 271.562597 
L 117.885321 271.562597 
" clip-path="url(#p77b2ae1fdb)" style="fill: #1f77b4; stroke: #000000; stroke-linejoin: miter"/>
   </g>
   <g id="patch_162">
    <path d="M 121.770931 271.562597 
L 117.885321 271.562597 
" clip-path="url(#p77b2ae1fdb)" style="fill: #1f77b4; stroke: #000000; stroke-linejoin: miter"/>
   </g>
   <g id="patch_163">
    <path d="M 50.69793 236.765523 
C 60.657591 236.765523 70.210671 232.808508 77.253214 225.765964 
C 84.295758 218.72342 88.252774 209.17034 88.252774 199.210679 
C 88.252774 189.251018 84.295758 179.697938 77.253214 172.655394 
C 70.210671 165.61285 60.657591 161.655835 50.69793 161.655835 
C 40.738269 161.655835 31.185189 165.61285 24.142645 172.655394 
C 17.100101 179.697938 13.143086 189.251018 13.143086 199.210679 
C 13.143086 209.17034 17.100101 218.72342 24.142645 225.765964 
C 31.185189 232.808508 40.738269 236.765523 50.69793 236.765523 
z
" clip-path="url(#p77b2ae1fdb)" style="fill: #c0c0c0; stroke: #000000; stroke-linejoin: miter"/>
   </g>
   <g id="patch_164">
    <path d="M 380.042911 253.585896 
L 379.02149 254.643349 
" clip-path="url(#p77b2ae1fdb)" style="fill: #1f77b4; stroke: #000000; stroke-linejoin: miter"/>
   </g>
   <g id="patch_165">
    <path d="M 380.042911 253.585896 
L 379.02149 254.643349 
" clip-path="url(#p77b2ae1fdb)" style="fill: #1f77b4; stroke: #000000; stroke-linejoin: miter"/>
   </g>
   <g id="patch_166">
    <path d="M 378.000069 255.700802 
L 376.978647 256.758255 
" clip-path="url(#p77b2ae1fdb)" style="fill: #1f77b4; stroke: #000000; stroke-linejoin: miter"/>
   </g>
   <g id="patch_167">
    <path d="M 378.000069 255.700802 
L 376.978647 256.758255 
" clip-path="url(#p77b2ae1fdb)" style="fill: #1f77b4; stroke: #000000; stroke-linejoin: miter"/>
   </g>
   <g id="patch_168">
    <path d="M 158.036624 309.117441 
C 167.996285 309.117441 177.549365 305.160426 184.591909 298.117882 
C 191.634453 291.075338 195.591468 281.522258 195.591468 271.562597 
C 195.591468 261.602936 191.634453 252.049856 184.591909 245.007312 
C 177.549365 237.964768 167.996285 234.007753 158.036624 234.007753 
C 148.076963 234.007753 138.523883 237.964768 131.48134 245.007312 
C 124.438796 252.049856 120.48178 261.602936 120.48178 271.562597 
C 120.48178 281.522258 124.438796 291.075338 131.48134 298.117882 
C 138.523883 305.160426 148.076963 309.117441 158.036624 309.117441 
z
" clip-path="url(#p77b2ae1fdb)" style="fill: #c0c0c0; stroke: #000000; stroke-linejoin: miter"/>
   </g>
   <g id="patch_169">
    <path d="M 375.957226 257.815708 
L 374.935805 258.873161 
" clip-path="url(#p77b2ae1fdb)" style="fill: #1f77b4; stroke: #000000; stroke-linejoin: miter"/>
   </g>
   <g id="patch_170">
    <path d="M 375.957226 257.815708 
L 374.935805 258.873161 
" clip-path="url(#p77b2ae1fdb)" style="fill: #1f77b4; stroke: #000000; stroke-linejoin: miter"/>
   </g>
   <g id="patch_171">
    <path d="M 199.483131 271.562597 
L 195.597521 271.562597 
" clip-path="url(#p77b2ae1fdb)" style="fill: #1f77b4; stroke: #000000; stroke-linejoin: miter"/>
   </g>
   <g id="patch_172">
    <path d="M 199.483131 271.562597 
L 195.597521 271.562597 
" clip-path="url(#p77b2ae1fdb)" style="fill: #1f77b4; stroke: #000000; stroke-linejoin: miter"/>
   </g>
   <g id="patch_173">
    <path d="M 207.254351 271.562597 
L 203.368741 271.562597 
" clip-path="url(#p77b2ae1fdb)" style="fill: #1f77b4; stroke: #000000; stroke-linejoin: miter"/>
   </g>
   <g id="patch_174">
    <path d="M 207.254351 271.562597 
L 203.368741 271.562597 
" clip-path="url(#p77b2ae1fdb)" style="fill: #1f77b4; stroke: #000000; stroke-linejoin: miter"/>
   </g>
   <g id="patch_175">
    <path d="M 215.025571 271.562597 
L 211.139961 271.562597 
" clip-path="url(#p77b2ae1fdb)" style="fill: #1f77b4; stroke: #000000; stroke-linejoin: miter"/>
   </g>
   <g id="patch_176">
    <path d="M 215.025571 271.562597 
L 211.139961 271.562597 
" clip-path="url(#p77b2ae1fdb)" style="fill: #1f77b4; stroke: #000000; stroke-linejoin: miter"/>
   </g>
   <g id="patch_177">
    <path d="M 373.914384 259.930614 
L 372.892963 260.988067 
" clip-path="url(#p77b2ae1fdb)" style="fill: #1f77b4; stroke: #000000; stroke-linejoin: miter"/>
   </g>
   <g id="patch_178">
    <path d="M 373.914384 259.930614 
L 372.892963 260.988067 
" clip-path="url(#p77b2ae1fdb)" style="fill: #1f77b4; stroke: #000000; stroke-linejoin: miter"/>
   </g>
   <g id="patch_179">
    <path d="M 318.372431 263.248163 
C 328.332092 263.248163 337.885172 259.291148 344.927716 252.248604 
C 351.97026 245.20606 355.927275 235.65298 355.927275 225.693319 
C 355.927275 215.733658 351.97026 206.180578 344.927716 199.138034 
C 337.885172 192.09549 328.332092 188.138475 318.372431 188.138475 
C 308.41277 188.138475 298.85969 192.09549 291.817146 199.138034 
C 284.774603 206.180578 280.817587 215.733658 280.817587 225.693319 
C 280.817587 235.65298 284.774603 245.20606 291.817146 252.248604 
C 298.85969 259.291148 308.41277 263.248163 318.372431 263.248163 
z
" clip-path="url(#p77b2ae1fdb)" style="fill: #c0c0c0; stroke: #000000; stroke-linejoin: miter"/>
   </g>
   <g id="patch_180">
    <path d="M 222.796791 271.562597 
L 218.911181 271.562597 
" clip-path="url(#p77b2ae1fdb)" style="fill: #1f77b4; stroke: #000000; stroke-linejoin: miter"/>
   </g>
   <g id="patch_181">
    <path d="M 222.796791 271.562597 
L 218.911181 271.562597 
" clip-path="url(#p77b2ae1fdb)" style="fill: #1f77b4; stroke: #000000; stroke-linejoin: miter"/>
   </g>
   <g id="patch_182">
    <path d="M 153.018993 236.765523 
C 162.978654 236.765523 172.531734 232.808508 179.574278 225.765964 
C 186.616822 218.72342 190.573837 209.17034 190.573837 199.210679 
C 190.573837 189.251018 186.616822 179.697938 179.574278 172.655394 
C 172.531734 165.61285 162.978654 161.655835 153.018993 161.655835 
C 143.059332 161.655835 133.506252 165.61285 126.463708 172.655394 
C 119.421165 179.697938 115.464149 189.251018 115.464149 199.210679 
C 115.464149 209.17034 119.421165 218.72342 126.463708 225.765964 
C 133.506252 232.808508 143.059332 236.765523 153.018993 236.765523 
z
" clip-path="url(#p77b2ae1fdb)" style="fill: #c0c0c0; stroke: #000000; stroke-linejoin: miter"/>
   </g>
   <g id="patch_183">
    <path d="M 371.871542 262.04552 
L 370.850121 263.102973 
" clip-path="url(#p77b2ae1fdb)" style="fill: #1f77b4; stroke: #000000; stroke-linejoin: miter"/>
   </g>
   <g id="patch_184">
    <path d="M 371.871542 262.04552 
L 370.850121 263.102973 
" clip-path="url(#p77b2ae1fdb)" style="fill: #1f77b4; stroke: #000000; stroke-linejoin: miter"/>
   </g>
   <g id="patch_185">
    <path d="M 260.357688 309.117441 
C 270.317349 309.117441 279.870429 305.160426 286.912973 298.117882 
C 293.955517 291.075338 297.912532 281.522258 297.912532 271.562597 
C 297.912532 261.602936 293.955517 252.049856 286.912973 245.007312 
C 279.870429 237.964768 270.317349 234.007753 260.357688 234.007753 
C 250.398027 234.007753 240.844947 237.964768 233.802403 245.007312 
C 226.759859 252.049856 222.802844 261.602936 222.802844 271.562597 
C 222.802844 281.522258 226.759859 291.075338 233.802403 298.117882 
C 240.844947 305.160426 250.398027 309.117441 260.357688 309.117441 
z
" clip-path="url(#p77b2ae1fdb)" style="fill: #c0c0c0; stroke: #000000; stroke-linejoin: miter"/>
   </g>
   <g id="patch_186">
    <path d="M 369.828699 264.160426 
L 368.807278 265.217879 
" clip-path="url(#p77b2ae1fdb)" style="fill: #1f77b4; stroke: #000000; stroke-linejoin: miter"/>
   </g>
   <g id="patch_187">
    <path d="M 369.828699 264.160426 
L 368.807278 265.217879 
" clip-path="url(#p77b2ae1fdb)" style="fill: #1f77b4; stroke: #000000; stroke-linejoin: miter"/>
   </g>
   <g id="patch_188">
    <path d="M 300.508991 271.562597 
L 296.623381 271.562597 
" clip-path="url(#p77b2ae1fdb)" style="fill: #1f77b4; stroke: #000000; stroke-linejoin: miter"/>
   </g>
   <g id="patch_189">
    <path d="M 300.508991 271.562597 
L 296.623381 271.562597 
" clip-path="url(#p77b2ae1fdb)" style="fill: #1f77b4; stroke: #000000; stroke-linejoin: miter"/>
   </g>
   <g id="patch_190">
    <path d="M 367.785857 266.275332 
L 366.764436 267.332785 
" clip-path="url(#p77b2ae1fdb)" style="fill: #1f77b4; stroke: #000000; stroke-linejoin: miter"/>
   </g>
   <g id="patch_191">
    <path d="M 367.785857 266.275332 
L 366.764436 267.332785 
" clip-path="url(#p77b2ae1fdb)" style="fill: #1f77b4; stroke: #000000; stroke-linejoin: miter"/>
   </g>
   <g id="patch_192">
    <path d="M 308.280211 271.562597 
L 304.394601 271.562597 
" clip-path="url(#p77b2ae1fdb)" style="fill: #1f77b4; stroke: #000000; stroke-linejoin: miter"/>
   </g>
   <g id="patch_193">
    <path d="M 308.280211 271.562597 
L 304.394601 271.562597 
" clip-path="url(#p77b2ae1fdb)" style="fill: #1f77b4; stroke: #000000; stroke-linejoin: miter"/>
   </g>
   <g id="patch_194">
    <path d="M 316.051431 271.562597 
L 312.165821 271.562597 
" clip-path="url(#p77b2ae1fdb)" style="fill: #1f77b4; stroke: #000000; stroke-linejoin: miter"/>
   </g>
   <g id="patch_195">
    <path d="M 316.051431 271.562597 
L 312.165821 271.562597 
" clip-path="url(#p77b2ae1fdb)" style="fill: #1f77b4; stroke: #000000; stroke-linejoin: miter"/>
   </g>
   <g id="patch_196">
    <path d="M 323.822651 271.562597 
L 319.937041 271.562597 
" clip-path="url(#p77b2ae1fdb)" style="fill: #1f77b4; stroke: #000000; stroke-linejoin: miter"/>
   </g>
   <g id="patch_197">
    <path d="M 323.822651 271.562597 
L 319.937041 271.562597 
" clip-path="url(#p77b2ae1fdb)" style="fill: #1f77b4; stroke: #000000; stroke-linejoin: miter"/>
   </g>
   <g id="patch_198">
    <path d="M 365.743015 268.390238 
L 364.721594 269.447691 
" clip-path="url(#p77b2ae1fdb)" style="fill: #1f77b4; stroke: #000000; stroke-linejoin: miter"/>
   </g>
   <g id="patch_199">
    <path d="M 365.743015 268.390238 
L 364.721594 269.447691 
" clip-path="url(#p77b2ae1fdb)" style="fill: #1f77b4; stroke: #000000; stroke-linejoin: miter"/>
   </g>
   <g id="patch_200">
    <path d="M 331.593871 271.562597 
L 327.708261 271.562597 
" clip-path="url(#p77b2ae1fdb)" style="fill: #1f77b4; stroke: #000000; stroke-linejoin: miter"/>
   </g>
   <g id="patch_201">
    <path d="M 331.593871 271.562597 
L 327.708261 271.562597 
" clip-path="url(#p77b2ae1fdb)" style="fill: #1f77b4; stroke: #000000; stroke-linejoin: miter"/>
   </g>
   <g id="patch_202">
    <path d="M 255.340057 236.765523 
C 265.299718 236.765523 274.852798 232.808508 281.895342 225.765964 
C 288.937885 218.72342 292.894901 209.17034 292.894901 199.210679 
C 292.894901 189.251018 288.937885 179.697938 281.895342 172.655394 
C 274.852798 165.61285 265.299718 161.655835 255.340057 161.655835 
C 245.380396 161.655835 235.827316 165.61285 228.784772 172.655394 
C 221.742228 179.697938 217.785213 189.251018 217.785213 199.210679 
C 217.785213 209.17034 221.742228 218.72342 228.784772 225.765964 
C 235.827316 232.808508 245.380396 236.765523 255.340057 236.765523 
z
" clip-path="url(#p77b2ae1fdb)" style="fill: #c0c0c0; stroke: #000000; stroke-linejoin: miter"/>
   </g>
   <g id="patch_203">
    <path d="M 339.365091 271.562597 
L 335.479481 271.562597 
" clip-path="url(#p77b2ae1fdb)" style="fill: #1f77b4; stroke: #000000; stroke-linejoin: miter"/>
   </g>
   <g id="patch_204">
    <path d="M 339.365091 271.562597 
L 335.479481 271.562597 
" clip-path="url(#p77b2ae1fdb)" style="fill: #1f77b4; stroke: #000000; stroke-linejoin: miter"/>
   </g>
   <g id="patch_205">
    <path d="M 347.136311 271.562597 
L 343.250701 271.562597 
" clip-path="url(#p77b2ae1fdb)" style="fill: #1f77b4; stroke: #000000; stroke-linejoin: miter"/>
   </g>
   <g id="patch_206">
    <path d="M 347.136311 271.562597 
L 343.250701 271.562597 
" clip-path="url(#p77b2ae1fdb)" style="fill: #1f77b4; stroke: #000000; stroke-linejoin: miter"/>
   </g>
   <g id="patch_207">
    <path d="M 354.907531 271.562597 
L 351.021921 271.562597 
" clip-path="url(#p77b2ae1fdb)" style="fill: #1f77b4; stroke: #000000; stroke-linejoin: miter"/>
   </g>
   <g id="patch_208">
    <path d="M 354.907531 271.562597 
L 351.021921 271.562597 
" clip-path="url(#p77b2ae1fdb)" style="fill: #1f77b4; stroke: #000000; stroke-linejoin: miter"/>
   </g>
   <g id="patch_209">
    <path d="M 363.700173 270.505144 
L 362.678751 271.562597 
" clip-path="url(#p77b2ae1fdb)" style="fill: #1f77b4; stroke: #000000; stroke-linejoin: miter"/>
   </g>
   <g id="patch_210">
    <path d="M 363.700173 270.505144 
L 362.678751 271.562597 
" clip-path="url(#p77b2ae1fdb)" style="fill: #1f77b4; stroke: #000000; stroke-linejoin: miter"/>
   </g>
   <g id="patch_211">
    <path d="M 362.678751 271.562597 
L 358.793141 271.562597 
" clip-path="url(#p77b2ae1fdb)" style="fill: #1f77b4; stroke: #000000; stroke-linejoin: miter"/>
   </g>
   <g id="patch_212">
    <path d="M 362.678751 271.562597 
L 358.793141 271.562597 
" clip-path="url(#p77b2ae1fdb)" style="fill: #1f77b4; stroke: #000000; stroke-linejoin: miter"/>
   </g>
   <g id="patch_213">
    <path d="M 362.678751 271.562597 
L 362.678751 271.562597 
" clip-path="url(#p77b2ae1fdb)" style="fill: #1f77b4; stroke: #000000; stroke-linejoin: miter"/>
   </g>
   <g id="patch_214">
    <path d="M 362.678751 271.562597 
L 362.678751 271.562597 
" clip-path="url(#p77b2ae1fdb)" style="fill: #1f77b4; stroke: #000000; stroke-linejoin: miter"/>
   </g>
  </g>
 </g>
 <defs>
  <clipPath id="p77b2ae1fdb">
   <rect x="3.00024" y="118.226687" width="425.99952" height="195.546626"/>
  </clipPath>
 </defs>
</svg>
