<?xml version="1.0" encoding="utf-8" standalone="no"?>
<!DOCTYPE svg PUBLIC "-//W3C//DTD SVG 1.1//EN"
  "http://www.w3.org/Graphics/SVG/1.1/DTD/svg11.dtd">
<svg xmlns:xlink="http://www.w3.org/1999/xlink" width="432pt" height="432pt" viewBox="0 0 432 432" xmlns="http://www.w3.org/2000/svg" version="1.1">
 <metadata>
  <rdf:RDF xmlns:dc="http://purl.org/dc/elements/1.1/" xmlns:cc="http://creativecommons.org/ns#" xmlns:rdf="http://www.w3.org/1999/02/22-rdf-syntax-ns#">
   <cc:Work>
    <dc:type rdf:resource="http://purl.org/dc/dcmitype/StillImage"/>
    <dc:date>2024-11-14T15:18:32.688244</dc:date>
    <dc:format>image/svg+xml</dc:format>
    <dc:creator>
     <cc:Agent>
      <dc:title>Matplotlib v3.9.2, https://matplotlib.org/</dc:title>
     </cc:Agent>
    </dc:creator>
   </cc:Work>
  </rdf:RDF>
 </metadata>
 <defs>
  <style type="text/css">*{stroke-linejoin: round; stroke-linecap: butt}</style>
 </defs>
 <g id="figure_1">
  <g id="patch_1">
   <path d="M 0 432 
L 432 432 
L 432 0 
L 0 0 
z
" style="fill: #ffffff"/>
  </g>
  <g id="axes_1">
   <g id="patch_2">
    <path d="M 208.049545 243.480153 
L 208.049545 243.480153 
" clip-path="url(#p69114ee754)" style="fill: #1f77b4; stroke: #000000; stroke-linejoin: miter"/>
   </g>
   <g id="patch_3">
    <path d="M 208.049545 243.480153 
L 208.049545 243.480153 
" clip-path="url(#p69114ee754)" style="fill: #1f77b4; stroke: #000000; stroke-linejoin: miter"/>
   </g>
   <g id="patch_4">
    <path d="M 211.882406 243.480153 
L 208.049545 243.480153 
" clip-path="url(#p69114ee754)" style="fill: #1f77b4; stroke: #000000; stroke-linejoin: miter"/>
   </g>
   <g id="patch_5">
    <path d="M 211.882406 243.480153 
L 208.049545 243.480153 
" clip-path="url(#p69114ee754)" style="fill: #1f77b4; stroke: #000000; stroke-linejoin: miter"/>
   </g>
   <g id="patch_6">
    <path d="M 208.049545 243.480153 
L 205.274002 244.369572 
" clip-path="url(#p69114ee754)" style="fill: #1f77b4; stroke: #000000; stroke-linejoin: miter"/>
   </g>
   <g id="patch_7">
    <path d="M 208.049545 243.480153 
L 205.274002 244.369572 
" clip-path="url(#p69114ee754)" style="fill: #1f77b4; stroke: #000000; stroke-linejoin: miter"/>
   </g>
   <g id="patch_8">
    <path d="M 219.548129 243.480153 
L 215.715268 243.480153 
" clip-path="url(#p69114ee754)" style="fill: #1f77b4; stroke: #000000; stroke-linejoin: miter"/>
   </g>
   <g id="patch_9">
    <path d="M 219.548129 243.480153 
L 215.715268 243.480153 
" clip-path="url(#p69114ee754)" style="fill: #1f77b4; stroke: #000000; stroke-linejoin: miter"/>
   </g>
   <g id="patch_10">
    <path d="M 227.213851 243.480153 
L 223.38099 243.480153 
" clip-path="url(#p69114ee754)" style="fill: #1f77b4; stroke: #000000; stroke-linejoin: miter"/>
   </g>
   <g id="patch_11">
    <path d="M 227.213851 243.480153 
L 223.38099 243.480153 
" clip-path="url(#p69114ee754)" style="fill: #1f77b4; stroke: #000000; stroke-linejoin: miter"/>
   </g>
   <g id="patch_12">
    <path d="M 234.879574 243.480153 
L 231.046713 243.480153 
" clip-path="url(#p69114ee754)" style="fill: #1f77b4; stroke: #000000; stroke-linejoin: miter"/>
   </g>
   <g id="patch_13">
    <path d="M 234.879574 243.480153 
L 231.046713 243.480153 
" clip-path="url(#p69114ee754)" style="fill: #1f77b4; stroke: #000000; stroke-linejoin: miter"/>
   </g>
   <g id="patch_14">
    <path d="M 202.498459 245.25899 
L 199.722916 246.148409 
" clip-path="url(#p69114ee754)" style="fill: #1f77b4; stroke: #000000; stroke-linejoin: miter"/>
   </g>
   <g id="patch_15">
    <path d="M 202.498459 245.25899 
L 199.722916 246.148409 
" clip-path="url(#p69114ee754)" style="fill: #1f77b4; stroke: #000000; stroke-linejoin: miter"/>
   </g>
   <g id="patch_16">
    <path d="M 242.545296 243.480153 
L 238.712435 243.480153 
" clip-path="url(#p69114ee754)" style="fill: #1f77b4; stroke: #000000; stroke-linejoin: miter"/>
   </g>
   <g id="patch_17">
    <path d="M 242.545296 243.480153 
L 238.712435 243.480153 
" clip-path="url(#p69114ee754)" style="fill: #1f77b4; stroke: #000000; stroke-linejoin: miter"/>
   </g>
   <g id="patch_18">
    <path d="M 250.211019 243.480153 
L 246.378158 243.480153 
" clip-path="url(#p69114ee754)" style="fill: #1f77b4; stroke: #000000; stroke-linejoin: miter"/>
   </g>
   <g id="patch_19">
    <path d="M 250.211019 243.480153 
L 246.378158 243.480153 
" clip-path="url(#p69114ee754)" style="fill: #1f77b4; stroke: #000000; stroke-linejoin: miter"/>
   </g>
   <g id="patch_20">
    <path d="M 257.876742 243.480153 
L 254.04388 243.480153 
" clip-path="url(#p69114ee754)" style="fill: #1f77b4; stroke: #000000; stroke-linejoin: miter"/>
   </g>
   <g id="patch_21">
    <path d="M 257.876742 243.480153 
L 254.04388 243.480153 
" clip-path="url(#p69114ee754)" style="fill: #1f77b4; stroke: #000000; stroke-linejoin: miter"/>
   </g>
   <g id="patch_22">
    <path d="M 265.542464 243.480153 
L 261.709603 243.480153 
" clip-path="url(#p69114ee754)" style="fill: #1f77b4; stroke: #000000; stroke-linejoin: miter"/>
   </g>
   <g id="patch_23">
    <path d="M 265.542464 243.480153 
L 261.709603 243.480153 
" clip-path="url(#p69114ee754)" style="fill: #1f77b4; stroke: #000000; stroke-linejoin: miter"/>
   </g>
   <g id="patch_24">
    <path d="M 273.208187 243.480153 
L 269.375325 243.480153 
" clip-path="url(#p69114ee754)" style="fill: #1f77b4; stroke: #000000; stroke-linejoin: miter"/>
   </g>
   <g id="patch_25">
    <path d="M 273.208187 243.480153 
L 269.375325 243.480153 
" clip-path="url(#p69114ee754)" style="fill: #1f77b4; stroke: #000000; stroke-linejoin: miter"/>
   </g>
   <g id="patch_26">
    <path d="M 280.873909 243.480153 
L 277.041048 243.480153 
" clip-path="url(#p69114ee754)" style="fill: #1f77b4; stroke: #000000; stroke-linejoin: miter"/>
   </g>
   <g id="patch_27">
    <path d="M 280.873909 243.480153 
L 277.041048 243.480153 
" clip-path="url(#p69114ee754)" style="fill: #1f77b4; stroke: #000000; stroke-linejoin: miter"/>
   </g>
   <g id="patch_28">
    <path d="M 288.539632 243.480153 
L 284.70677 243.480153 
" clip-path="url(#p69114ee754)" style="fill: #1f77b4; stroke: #000000; stroke-linejoin: miter"/>
   </g>
   <g id="patch_29">
    <path d="M 288.539632 243.480153 
L 284.70677 243.480153 
" clip-path="url(#p69114ee754)" style="fill: #1f77b4; stroke: #000000; stroke-linejoin: miter"/>
   </g>
   <g id="patch_30">
    <path d="M 296.205354 243.480153 
L 292.372493 243.480153 
" clip-path="url(#p69114ee754)" style="fill: #1f77b4; stroke: #000000; stroke-linejoin: miter"/>
   </g>
   <g id="patch_31">
    <path d="M 296.205354 243.480153 
L 292.372493 243.480153 
" clip-path="url(#p69114ee754)" style="fill: #1f77b4; stroke: #000000; stroke-linejoin: miter"/>
   </g>
   <g id="patch_32">
    <path d="M 163.685911 225.834702 
C 172.78071 225.834702 181.504233 222.2213 187.935227 215.790306 
C 194.366221 209.359312 197.979623 200.635789 197.979623 191.54099 
C 197.979623 182.446191 194.366221 173.722667 187.935227 167.291673 
C 181.504233 160.86068 172.78071 157.247278 163.685911 157.247278 
C 154.591112 157.247278 145.867588 160.86068 139.436594 167.291673 
C 133.005601 173.722667 129.392199 182.446191 129.392199 191.54099 
C 129.392199 200.635789 133.005601 209.359312 139.436594 215.790306 
C 145.867588 222.2213 154.591112 225.834702 163.685911 225.834702 
z
" clip-path="url(#p69114ee754)" style="fill: #ffd123; stroke: #000000; stroke-linejoin: miter"/>
   </g>
   <g id="patch_33">
    <path d="M 303.871077 243.480153 
L 300.038215 243.480153 
" clip-path="url(#p69114ee754)" style="fill: #1f77b4; stroke: #000000; stroke-linejoin: miter"/>
   </g>
   <g id="patch_34">
    <path d="M 303.871077 243.480153 
L 300.038215 243.480153 
" clip-path="url(#p69114ee754)" style="fill: #1f77b4; stroke: #000000; stroke-linejoin: miter"/>
   </g>
   <g id="patch_35">
    <path d="M 311.536799 243.480153 
L 307.703938 243.480153 
" clip-path="url(#p69114ee754)" style="fill: #1f77b4; stroke: #000000; stroke-linejoin: miter"/>
   </g>
   <g id="patch_36">
    <path d="M 311.536799 243.480153 
L 307.703938 243.480153 
" clip-path="url(#p69114ee754)" style="fill: #1f77b4; stroke: #000000; stroke-linejoin: miter"/>
   </g>
   <g id="patch_37">
    <path d="M 319.202522 243.480153 
L 315.36966 243.480153 
" clip-path="url(#p69114ee754)" style="fill: #1f77b4; stroke: #000000; stroke-linejoin: miter"/>
   </g>
   <g id="patch_38">
    <path d="M 319.202522 243.480153 
L 315.36966 243.480153 
" clip-path="url(#p69114ee754)" style="fill: #1f77b4; stroke: #000000; stroke-linejoin: miter"/>
   </g>
   <g id="patch_39">
    <path d="M 326.868244 243.480153 
L 323.035383 243.480153 
" clip-path="url(#p69114ee754)" style="fill: #1f77b4; stroke: #000000; stroke-linejoin: miter"/>
   </g>
   <g id="patch_40">
    <path d="M 326.868244 243.480153 
L 323.035383 243.480153 
" clip-path="url(#p69114ee754)" style="fill: #1f77b4; stroke: #000000; stroke-linejoin: miter"/>
   </g>
   <g id="patch_41">
    <path d="M 334.533967 243.480153 
L 330.701105 243.480153 
" clip-path="url(#p69114ee754)" style="fill: #1f77b4; stroke: #000000; stroke-linejoin: miter"/>
   </g>
   <g id="patch_42">
    <path d="M 334.533967 243.480153 
L 330.701105 243.480153 
" clip-path="url(#p69114ee754)" style="fill: #1f77b4; stroke: #000000; stroke-linejoin: miter"/>
   </g>
   <g id="patch_43">
    <path d="M 342.199689 243.480153 
L 338.366828 243.480153 
" clip-path="url(#p69114ee754)" style="fill: #1f77b4; stroke: #000000; stroke-linejoin: miter"/>
   </g>
   <g id="patch_44">
    <path d="M 342.199689 243.480153 
L 338.366828 243.480153 
" clip-path="url(#p69114ee754)" style="fill: #1f77b4; stroke: #000000; stroke-linejoin: miter"/>
   </g>
   <g id="patch_45">
    <path d="M 349.865412 243.480153 
L 346.03255 243.480153 
" clip-path="url(#p69114ee754)" style="fill: #1f77b4; stroke: #000000; stroke-linejoin: miter"/>
   </g>
   <g id="patch_46">
    <path d="M 349.865412 243.480153 
L 346.03255 243.480153 
" clip-path="url(#p69114ee754)" style="fill: #1f77b4; stroke: #000000; stroke-linejoin: miter"/>
   </g>
   <g id="patch_47">
    <path d="M 197.549283 288.644536 
C 206.644082 288.644536 215.367606 285.031134 221.7986 278.600141 
C 228.229593 272.169147 231.842995 263.445623 231.842995 254.350824 
C 231.842995 245.256025 228.229593 236.532502 221.7986 230.101508 
C 215.367606 223.670514 206.644082 220.057112 197.549283 220.057112 
C 188.454484 220.057112 179.730961 223.670514 173.299967 230.101508 
C 166.868973 236.532502 163.255571 245.256025 163.255571 254.350824 
C 163.255571 263.445623 166.868973 272.169147 173.299967 278.600141 
C 179.730961 285.031134 188.454484 288.644536 197.549283 288.644536 
z
" clip-path="url(#p69114ee754)" style="fill: #ffd123; stroke: #000000; stroke-linejoin: miter"/>
   </g>
   <g id="patch_48">
    <path d="M 357.531134 243.480153 
L 353.698273 243.480153 
" clip-path="url(#p69114ee754)" style="fill: #1f77b4; stroke: #000000; stroke-linejoin: miter"/>
   </g>
   <g id="patch_49">
    <path d="M 357.531134 243.480153 
L 353.698273 243.480153 
" clip-path="url(#p69114ee754)" style="fill: #1f77b4; stroke: #000000; stroke-linejoin: miter"/>
   </g>
   <g id="patch_50">
    <path d="M 365.196857 243.480153 
L 361.363995 243.480153 
" clip-path="url(#p69114ee754)" style="fill: #1f77b4; stroke: #000000; stroke-linejoin: miter"/>
   </g>
   <g id="patch_51">
    <path d="M 365.196857 243.480153 
L 361.363995 243.480153 
" clip-path="url(#p69114ee754)" style="fill: #1f77b4; stroke: #000000; stroke-linejoin: miter"/>
   </g>
   <g id="patch_52">
    <path d="M 372.862579 243.480153 
L 369.029718 243.480153 
" clip-path="url(#p69114ee754)" style="fill: #1f77b4; stroke: #000000; stroke-linejoin: miter"/>
   </g>
   <g id="patch_53">
    <path d="M 372.862579 243.480153 
L 369.029718 243.480153 
" clip-path="url(#p69114ee754)" style="fill: #1f77b4; stroke: #000000; stroke-linejoin: miter"/>
   </g>
   <g id="patch_54">
    <path d="M 233.955034 225.834702 
C 243.049833 225.834702 251.773356 222.2213 258.20435 215.790306 
C 264.635344 209.359312 268.248746 200.635789 268.248746 191.54099 
C 268.248746 182.446191 264.635344 173.722667 258.20435 167.291673 
C 251.773356 160.86068 243.049833 157.247278 233.955034 157.247278 
C 224.860235 157.247278 216.136711 160.86068 209.705717 167.291673 
C 203.274724 173.722667 199.661322 182.446191 199.661322 191.54099 
C 199.661322 200.635789 203.274724 209.359312 209.705717 215.790306 
C 216.136711 222.2213 224.860235 225.834702 233.955034 225.834702 
z
" clip-path="url(#p69114ee754)" style="fill: #ffd123; stroke: #000000; stroke-linejoin: miter"/>
   </g>
   <g id="patch_55">
    <path d="M 163.640858 257.71085 
L 160.865315 258.600268 
" clip-path="url(#p69114ee754)" style="fill: #1f77b4; stroke: #000000; stroke-linejoin: miter"/>
   </g>
   <g id="patch_56">
    <path d="M 163.640858 257.71085 
L 160.865315 258.600268 
" clip-path="url(#p69114ee754)" style="fill: #1f77b4; stroke: #000000; stroke-linejoin: miter"/>
   </g>
   <g id="patch_57">
    <path d="M 380.528302 243.480153 
L 376.69544 243.480153 
" clip-path="url(#p69114ee754)" style="fill: #1f77b4; stroke: #000000; stroke-linejoin: miter"/>
   </g>
   <g id="patch_58">
    <path d="M 380.528302 243.480153 
L 376.69544 243.480153 
" clip-path="url(#p69114ee754)" style="fill: #1f77b4; stroke: #000000; stroke-linejoin: miter"/>
   </g>
   <g id="patch_59">
    <path d="M 388.194024 243.480153 
L 384.361163 243.480153 
" clip-path="url(#p69114ee754)" style="fill: #1f77b4; stroke: #000000; stroke-linejoin: miter"/>
   </g>
   <g id="patch_60">
    <path d="M 388.194024 243.480153 
L 384.361163 243.480153 
" clip-path="url(#p69114ee754)" style="fill: #1f77b4; stroke: #000000; stroke-linejoin: miter"/>
   </g>
   <g id="patch_61">
    <path d="M 395.859747 243.480153 
L 392.026885 243.480153 
" clip-path="url(#p69114ee754)" style="fill: #1f77b4; stroke: #000000; stroke-linejoin: miter"/>
   </g>
   <g id="patch_62">
    <path d="M 395.859747 243.480153 
L 392.026885 243.480153 
" clip-path="url(#p69114ee754)" style="fill: #1f77b4; stroke: #000000; stroke-linejoin: miter"/>
   </g>
   <g id="patch_63">
    <path d="M 158.089772 259.489687 
L 155.314229 260.379105 
" clip-path="url(#p69114ee754)" style="fill: #1f77b4; stroke: #000000; stroke-linejoin: miter"/>
   </g>
   <g id="patch_64">
    <path d="M 158.089772 259.489687 
L 155.314229 260.379105 
" clip-path="url(#p69114ee754)" style="fill: #1f77b4; stroke: #000000; stroke-linejoin: miter"/>
   </g>
   <g id="patch_65">
    <path d="M 403.525469 243.480153 
L 399.692608 243.480153 
" clip-path="url(#p69114ee754)" style="fill: #1f77b4; stroke: #000000; stroke-linejoin: miter"/>
   </g>
   <g id="patch_66">
    <path d="M 403.525469 243.480153 
L 399.692608 243.480153 
" clip-path="url(#p69114ee754)" style="fill: #1f77b4; stroke: #000000; stroke-linejoin: miter"/>
   </g>
   <g id="patch_67">
    <path d="M 411.191192 243.480153 
L 407.358331 243.480153 
" clip-path="url(#p69114ee754)" style="fill: #1f77b4; stroke: #000000; stroke-linejoin: miter"/>
   </g>
   <g id="patch_68">
    <path d="M 411.191192 243.480153 
L 407.358331 243.480153 
" clip-path="url(#p69114ee754)" style="fill: #1f77b4; stroke: #000000; stroke-linejoin: miter"/>
   </g>
   <g id="patch_69">
    <path d="M 152.538686 261.268524 
L 149.763143 262.157943 
" clip-path="url(#p69114ee754)" style="fill: #1f77b4; stroke: #000000; stroke-linejoin: miter"/>
   </g>
   <g id="patch_70">
    <path d="M 152.538686 261.268524 
L 149.763143 262.157943 
" clip-path="url(#p69114ee754)" style="fill: #1f77b4; stroke: #000000; stroke-linejoin: miter"/>
   </g>
   <g id="patch_71">
    <path d="M 418.856914 243.480153 
L 415.024053 243.480153 
" clip-path="url(#p69114ee754)" style="fill: #1f77b4; stroke: #000000; stroke-linejoin: miter"/>
   </g>
   <g id="patch_72">
    <path d="M 418.856914 243.480153 
L 415.024053 243.480153 
" clip-path="url(#p69114ee754)" style="fill: #1f77b4; stroke: #000000; stroke-linejoin: miter"/>
   </g>
   <g id="patch_73">
    <path d="M 418.856914 243.480153 
L 418.856914 243.480153 
" clip-path="url(#p69114ee754)" style="fill: #1f77b4; stroke: #000000; stroke-linejoin: miter"/>
   </g>
   <g id="patch_74">
    <path d="M 418.856914 243.480153 
L 418.856914 243.480153 
" clip-path="url(#p69114ee754)" style="fill: #1f77b4; stroke: #000000; stroke-linejoin: miter"/>
   </g>
   <g id="patch_75">
    <path d="M 418.856914 243.480153 
L 416.081371 244.369572 
" clip-path="url(#p69114ee754)" style="fill: #1f77b4; stroke: #000000; stroke-linejoin: miter"/>
   </g>
   <g id="patch_76">
    <path d="M 418.856914 243.480153 
L 416.081371 244.369572 
" clip-path="url(#p69114ee754)" style="fill: #1f77b4; stroke: #000000; stroke-linejoin: miter"/>
   </g>
   <g id="patch_77">
    <path d="M 267.818406 288.644536 
C 276.913205 288.644536 285.636729 285.031134 292.067723 278.600141 
C 298.498717 272.169147 302.112118 263.445623 302.112118 254.350824 
C 302.112118 245.256025 298.498717 236.532502 292.067723 230.101508 
C 285.636729 223.670514 276.913205 220.057112 267.818406 220.057112 
C 258.723607 220.057112 250.000084 223.670514 243.56909 230.101508 
C 237.138096 236.532502 233.524694 245.256025 233.524694 254.350824 
C 233.524694 263.445623 237.138096 272.169147 243.56909 278.600141 
C 250.000084 285.031134 258.723607 288.644536 267.818406 288.644536 
z
" clip-path="url(#p69114ee754)" style="fill: #ffd123; stroke: #000000; stroke-linejoin: miter"/>
   </g>
   <g id="patch_78">
    <path d="M 304.224157 225.834702 
C 313.318956 225.834702 322.042479 222.2213 328.473473 215.790306 
C 334.904467 209.359312 338.517869 200.635789 338.517869 191.54099 
C 338.517869 182.446191 334.904467 173.722667 328.473473 167.291673 
C 322.042479 160.86068 313.318956 157.247278 304.224157 157.247278 
C 295.129358 157.247278 286.405834 160.86068 279.97484 167.291673 
C 273.543847 173.722667 269.930445 182.446191 269.930445 191.54099 
C 269.930445 200.635789 273.543847 209.359312 279.97484 215.790306 
C 286.405834 222.2213 295.129358 225.834702 304.224157 225.834702 
z
" clip-path="url(#p69114ee754)" style="fill: #ffd123; stroke: #000000; stroke-linejoin: miter"/>
   </g>
   <g id="patch_79">
    <path d="M 413.305828 245.25899 
L 410.530285 246.148409 
" clip-path="url(#p69114ee754)" style="fill: #1f77b4; stroke: #000000; stroke-linejoin: miter"/>
   </g>
   <g id="patch_80">
    <path d="M 413.305828 245.25899 
L 410.530285 246.148409 
" clip-path="url(#p69114ee754)" style="fill: #1f77b4; stroke: #000000; stroke-linejoin: miter"/>
   </g>
   <g id="patch_81">
    <path d="M 407.754742 247.037827 
L 404.979199 247.927246 
" clip-path="url(#p69114ee754)" style="fill: #1f77b4; stroke: #000000; stroke-linejoin: miter"/>
   </g>
   <g id="patch_82">
    <path d="M 407.754742 247.037827 
L 404.979199 247.927246 
" clip-path="url(#p69114ee754)" style="fill: #1f77b4; stroke: #000000; stroke-linejoin: miter"/>
   </g>
   <g id="patch_83">
    <path d="M 402.203656 248.816664 
L 399.428113 249.706083 
" clip-path="url(#p69114ee754)" style="fill: #1f77b4; stroke: #000000; stroke-linejoin: miter"/>
   </g>
   <g id="patch_84">
    <path d="M 402.203656 248.816664 
L 399.428113 249.706083 
" clip-path="url(#p69114ee754)" style="fill: #1f77b4; stroke: #000000; stroke-linejoin: miter"/>
   </g>
   <g id="patch_85">
    <path d="M 112.800956 242.140709 
C 121.895755 242.140709 130.619279 238.527307 137.050273 232.096313 
C 143.481267 225.665319 147.094668 216.941795 147.094668 207.846997 
C 147.094668 198.752198 143.481267 190.028674 137.050273 183.59768 
C 130.619279 177.166686 121.895755 173.553284 112.800956 173.553284 
C 103.706158 173.553284 94.982634 177.166686 88.55164 183.59768 
C 82.120646 190.028674 78.507244 198.752198 78.507244 207.846997 
C 78.507244 216.941795 82.120646 225.665319 88.55164 232.096313 
C 94.982634 238.527307 103.706158 242.140709 112.800956 242.140709 
z
" clip-path="url(#p69114ee754)" style="fill: #ffd123; stroke: #000000; stroke-linejoin: miter"/>
   </g>
   <g id="patch_86">
    <path d="M 338.087529 288.644536 
C 347.182328 288.644536 355.905852 285.031134 362.336846 278.600141 
C 368.76784 272.169147 372.381241 263.445623 372.381241 254.350824 
C 372.381241 245.256025 368.76784 236.532502 362.336846 230.101508 
C 355.905852 223.670514 347.182328 220.057112 338.087529 220.057112 
C 328.99273 220.057112 320.269207 223.670514 313.838213 230.101508 
C 307.407219 236.532502 303.793817 245.256025 303.793817 254.350824 
C 303.793817 263.445623 307.407219 272.169147 313.838213 278.600141 
C 320.269207 285.031134 328.99273 288.644536 338.087529 288.644536 
z
" clip-path="url(#p69114ee754)" style="fill: #ffd123; stroke: #000000; stroke-linejoin: miter"/>
   </g>
   <g id="patch_87">
    <path d="M 149.206707 179.330875 
C 158.301506 179.330875 167.02503 175.717473 173.456023 169.286479 
C 179.887017 162.855485 183.500419 154.131961 183.500419 145.037162 
C 183.500419 135.942364 179.887017 127.21884 173.456023 120.787846 
C 167.02503 114.356852 158.301506 110.74345 149.206707 110.74345 
C 140.111908 110.74345 131.388384 114.356852 124.957391 120.787846 
C 118.526397 127.21884 114.912995 135.942364 114.912995 145.037162 
C 114.912995 154.131961 118.526397 162.855485 124.957391 169.286479 
C 131.388384 175.717473 140.111908 179.330875 149.206707 179.330875 
z
" clip-path="url(#p69114ee754)" style="fill: #ffd123; stroke: #000000; stroke-linejoin: miter"/>
   </g>
   <g id="patch_88">
    <path d="M 396.65257 250.595501 
L 393.877028 251.48492 
" clip-path="url(#p69114ee754)" style="fill: #1f77b4; stroke: #000000; stroke-linejoin: miter"/>
   </g>
   <g id="patch_89">
    <path d="M 396.65257 250.595501 
L 393.877028 251.48492 
" clip-path="url(#p69114ee754)" style="fill: #1f77b4; stroke: #000000; stroke-linejoin: miter"/>
   </g>
   <g id="patch_90">
    <path d="M 391.101485 252.374338 
L 388.325942 253.263757 
" clip-path="url(#p69114ee754)" style="fill: #1f77b4; stroke: #000000; stroke-linejoin: miter"/>
   </g>
   <g id="patch_91">
    <path d="M 391.101485 252.374338 
L 388.325942 253.263757 
" clip-path="url(#p69114ee754)" style="fill: #1f77b4; stroke: #000000; stroke-linejoin: miter"/>
   </g>
   <g id="patch_92">
    <path d="M 146.664329 304.950543 
C 155.759127 304.950543 164.482651 301.337141 170.913645 294.906147 
C 177.344639 288.475153 180.958041 279.75163 180.958041 270.656831 
C 180.958041 261.562032 177.344639 252.838508 170.913645 246.407514 
C 164.482651 239.976521 155.759127 236.363119 146.664329 236.363119 
C 137.56953 236.363119 128.846006 239.976521 122.415012 246.407514 
C 115.984018 252.838508 112.370616 261.562032 112.370616 270.656831 
C 112.370616 279.75163 115.984018 288.475153 122.415012 294.906147 
C 128.846006 301.337141 137.56953 304.950543 146.664329 304.950543 
z
" clip-path="url(#p69114ee754)" style="fill: #ffd123; stroke: #000000; stroke-linejoin: miter"/>
   </g>
   <g id="patch_93">
    <path d="M 385.550399 254.153176 
L 382.774856 255.042594 
" clip-path="url(#p69114ee754)" style="fill: #1f77b4; stroke: #000000; stroke-linejoin: miter"/>
   </g>
   <g id="patch_94">
    <path d="M 385.550399 254.153176 
L 382.774856 255.042594 
" clip-path="url(#p69114ee754)" style="fill: #1f77b4; stroke: #000000; stroke-linejoin: miter"/>
   </g>
   <g id="patch_95">
    <path d="M 113.681084 273.720384 
L 110.905541 274.609802 
" clip-path="url(#p69114ee754)" style="fill: #1f77b4; stroke: #000000; stroke-linejoin: miter"/>
   </g>
   <g id="patch_96">
    <path d="M 113.681084 273.720384 
L 110.905541 274.609802 
" clip-path="url(#p69114ee754)" style="fill: #1f77b4; stroke: #000000; stroke-linejoin: miter"/>
   </g>
   <g id="patch_97">
    <path d="M 183.070079 242.140709 
C 192.164878 242.140709 200.888402 238.527307 207.319396 232.096313 
C 213.75039 225.665319 217.363791 216.941795 217.363791 207.846997 
C 217.363791 198.752198 213.75039 190.028674 207.319396 183.59768 
C 200.888402 177.166686 192.164878 173.553284 183.070079 173.553284 
C 173.975281 173.553284 165.251757 177.166686 158.820763 183.59768 
C 152.389769 190.028674 148.776367 198.752198 148.776367 207.846997 
C 148.776367 216.941795 152.389769 225.665319 158.820763 232.096313 
C 165.251757 238.527307 173.975281 242.140709 183.070079 242.140709 
z
" clip-path="url(#p69114ee754)" style="fill: #ffd123; stroke: #000000; stroke-linejoin: miter"/>
   </g>
   <g id="patch_98">
    <path d="M 379.999313 255.932013 
L 377.22377 256.821431 
" clip-path="url(#p69114ee754)" style="fill: #1f77b4; stroke: #000000; stroke-linejoin: miter"/>
   </g>
   <g id="patch_99">
    <path d="M 379.999313 255.932013 
L 377.22377 256.821431 
" clip-path="url(#p69114ee754)" style="fill: #1f77b4; stroke: #000000; stroke-linejoin: miter"/>
   </g>
   <g id="patch_100">
    <path d="M 219.47583 179.330875 
C 228.570629 179.330875 237.294153 175.717473 243.725146 169.286479 
C 250.15614 162.855485 253.769542 154.131961 253.769542 145.037162 
C 253.769542 135.942364 250.15614 127.21884 243.725146 120.787846 
C 237.294153 114.356852 228.570629 110.74345 219.47583 110.74345 
C 210.381031 110.74345 201.657508 114.356852 195.226514 120.787846 
C 188.79552 127.21884 185.182118 135.942364 185.182118 145.037162 
C 185.182118 154.131961 188.79552 162.855485 195.226514 169.286479 
C 201.657508 175.717473 210.381031 179.330875 219.47583 179.330875 
z
" clip-path="url(#p69114ee754)" style="fill: #ffd123; stroke: #000000; stroke-linejoin: miter"/>
   </g>
   <g id="patch_101">
    <path d="M 108.129998 275.499221 
L 105.354455 276.388639 
" clip-path="url(#p69114ee754)" style="fill: #1f77b4; stroke: #000000; stroke-linejoin: miter"/>
   </g>
   <g id="patch_102">
    <path d="M 108.129998 275.499221 
L 105.354455 276.388639 
" clip-path="url(#p69114ee754)" style="fill: #1f77b4; stroke: #000000; stroke-linejoin: miter"/>
   </g>
   <g id="patch_103">
    <path d="M 374.448227 257.71085 
L 371.672684 258.600268 
" clip-path="url(#p69114ee754)" style="fill: #1f77b4; stroke: #000000; stroke-linejoin: miter"/>
   </g>
   <g id="patch_104">
    <path d="M 374.448227 257.71085 
L 371.672684 258.600268 
" clip-path="url(#p69114ee754)" style="fill: #1f77b4; stroke: #000000; stroke-linejoin: miter"/>
   </g>
   <g id="patch_105">
    <path d="M 102.578912 277.278058 
L 99.803369 278.167476 
" clip-path="url(#p69114ee754)" style="fill: #1f77b4; stroke: #000000; stroke-linejoin: miter"/>
   </g>
   <g id="patch_106">
    <path d="M 102.578912 277.278058 
L 99.803369 278.167476 
" clip-path="url(#p69114ee754)" style="fill: #1f77b4; stroke: #000000; stroke-linejoin: miter"/>
   </g>
   <g id="patch_107">
    <path d="M 368.897141 259.489687 
L 366.121598 260.379105 
" clip-path="url(#p69114ee754)" style="fill: #1f77b4; stroke: #000000; stroke-linejoin: miter"/>
   </g>
   <g id="patch_108">
    <path d="M 368.897141 259.489687 
L 366.121598 260.379105 
" clip-path="url(#p69114ee754)" style="fill: #1f77b4; stroke: #000000; stroke-linejoin: miter"/>
   </g>
   <g id="patch_109">
    <path d="M 216.933452 304.950543 
C 226.02825 304.950543 234.751774 301.337141 241.182768 294.906147 
C 247.613762 288.475153 251.227164 279.75163 251.227164 270.656831 
C 251.227164 261.562032 247.613762 252.838508 241.182768 246.407514 
C 234.751774 239.976521 226.02825 236.363119 216.933452 236.363119 
C 207.838653 236.363119 199.115129 239.976521 192.684135 246.407514 
C 186.253141 252.838508 182.639739 261.562032 182.639739 270.656831 
C 182.639739 279.75163 186.253141 288.475153 192.684135 294.906147 
C 199.115129 301.337141 207.838653 304.950543 216.933452 304.950543 
z
" clip-path="url(#p69114ee754)" style="fill: #ffd123; stroke: #000000; stroke-linejoin: miter"/>
   </g>
   <g id="patch_110">
    <path d="M 363.346055 261.268524 
L 360.570512 262.157943 
" clip-path="url(#p69114ee754)" style="fill: #1f77b4; stroke: #000000; stroke-linejoin: miter"/>
   </g>
   <g id="patch_111">
    <path d="M 363.346055 261.268524 
L 360.570512 262.157943 
" clip-path="url(#p69114ee754)" style="fill: #1f77b4; stroke: #000000; stroke-linejoin: miter"/>
   </g>
   <g id="patch_112">
    <path d="M 253.339202 242.140709 
C 262.434001 242.140709 271.157525 238.527307 277.588519 232.096313 
C 284.019513 225.665319 287.632915 216.941795 287.632915 207.846997 
C 287.632915 198.752198 284.019513 190.028674 277.588519 183.59768 
C 271.157525 177.166686 262.434001 173.553284 253.339202 173.553284 
C 244.244404 173.553284 235.52088 177.166686 229.089886 183.59768 
C 222.658892 190.028674 219.04549 198.752198 219.04549 207.846997 
C 219.04549 216.941795 222.658892 225.665319 229.089886 232.096313 
C 235.52088 238.527307 244.244404 242.140709 253.339202 242.140709 
z
" clip-path="url(#p69114ee754)" style="fill: #ffd123; stroke: #000000; stroke-linejoin: miter"/>
   </g>
   <g id="patch_113">
    <path d="M 289.744953 179.330875 
C 298.839752 179.330875 307.563276 175.717473 313.99427 169.286479 
C 320.425263 162.855485 324.038665 154.131961 324.038665 145.037162 
C 324.038665 135.942364 320.425263 127.21884 313.99427 120.787846 
C 307.563276 114.356852 298.839752 110.74345 289.744953 110.74345 
C 280.650154 110.74345 271.926631 114.356852 265.495637 120.787846 
C 259.064643 127.21884 255.451241 135.942364 255.451241 145.037162 
C 255.451241 154.131961 259.064643 162.855485 265.495637 169.286479 
C 271.926631 175.717473 280.650154 179.330875 289.744953 179.330875 
z
" clip-path="url(#p69114ee754)" style="fill: #ffd123; stroke: #000000; stroke-linejoin: miter"/>
   </g>
   <g id="patch_114">
    <path d="M 357.794969 263.047361 
L 355.019426 263.93678 
" clip-path="url(#p69114ee754)" style="fill: #1f77b4; stroke: #000000; stroke-linejoin: miter"/>
   </g>
   <g id="patch_115">
    <path d="M 357.794969 263.047361 
L 355.019426 263.93678 
" clip-path="url(#p69114ee754)" style="fill: #1f77b4; stroke: #000000; stroke-linejoin: miter"/>
   </g>
   <g id="patch_116">
    <path d="M 352.243883 264.826198 
L 349.46834 265.715617 
" clip-path="url(#p69114ee754)" style="fill: #1f77b4; stroke: #000000; stroke-linejoin: miter"/>
   </g>
   <g id="patch_117">
    <path d="M 352.243883 264.826198 
L 349.46834 265.715617 
" clip-path="url(#p69114ee754)" style="fill: #1f77b4; stroke: #000000; stroke-linejoin: miter"/>
   </g>
   <g id="patch_118">
    <path d="M 61.916002 258.446716 
C 71.010801 258.446716 79.734324 254.833314 86.165318 248.40232 
C 92.596312 241.971326 96.209714 233.247802 96.209714 224.153003 
C 96.209714 215.058205 92.596312 206.334681 86.165318 199.903687 
C 79.734324 193.472693 71.010801 189.859291 61.916002 189.859291 
C 52.821203 189.859291 44.097679 193.472693 37.666685 199.903687 
C 31.235691 206.334681 27.62229 215.058205 27.62229 224.153003 
C 27.62229 233.247802 31.235691 241.971326 37.666685 248.40232 
C 44.097679 254.833314 52.821203 258.446716 61.916002 258.446716 
z
" clip-path="url(#p69114ee754)" style="fill: #ffd123; stroke: #000000; stroke-linejoin: miter"/>
   </g>
   <g id="patch_119">
    <path d="M 287.202575 304.950543 
C 296.297373 304.950543 305.020897 301.337141 311.451891 294.906147 
C 317.882885 288.475153 321.496287 279.75163 321.496287 270.656831 
C 321.496287 261.562032 317.882885 252.838508 311.451891 246.407514 
C 305.020897 239.976521 296.297373 236.363119 287.202575 236.363119 
C 278.107776 236.363119 269.384252 239.976521 262.953258 246.407514 
C 256.522264 252.838508 252.908862 261.562032 252.908862 270.656831 
C 252.908862 279.75163 256.522264 288.475153 262.953258 294.906147 
C 269.384252 301.337141 278.107776 304.950543 287.202575 304.950543 
z
" clip-path="url(#p69114ee754)" style="fill: #ffd123; stroke: #000000; stroke-linejoin: miter"/>
   </g>
   <g id="patch_120">
    <path d="M 346.692797 266.605035 
L 343.917254 267.494454 
" clip-path="url(#p69114ee754)" style="fill: #1f77b4; stroke: #000000; stroke-linejoin: miter"/>
   </g>
   <g id="patch_121">
    <path d="M 346.692797 266.605035 
L 343.917254 267.494454 
" clip-path="url(#p69114ee754)" style="fill: #1f77b4; stroke: #000000; stroke-linejoin: miter"/>
   </g>
   <g id="patch_122">
    <path d="M 98.321752 195.636881 
C 107.416551 195.636881 116.140075 192.023479 122.571069 185.592486 
C 129.002063 179.161492 132.615465 170.437968 132.615465 161.343169 
C 132.615465 152.24837 129.002063 143.524847 122.571069 137.093853 
C 116.140075 130.662859 107.416551 127.049457 98.321752 127.049457 
C 89.226954 127.049457 80.50343 130.662859 74.072436 137.093853 
C 67.641442 143.524847 64.02804 152.24837 64.02804 161.343169 
C 64.02804 170.437968 67.641442 179.161492 74.072436 185.592486 
C 80.50343 192.023479 89.226954 195.636881 98.321752 195.636881 
z
" clip-path="url(#p69114ee754)" style="fill: #ffd123; stroke: #000000; stroke-linejoin: miter"/>
   </g>
   <g id="patch_123">
    <path d="M 341.141711 268.383872 
L 338.366168 269.273291 
" clip-path="url(#p69114ee754)" style="fill: #1f77b4; stroke: #000000; stroke-linejoin: miter"/>
   </g>
   <g id="patch_124">
    <path d="M 341.141711 268.383872 
L 338.366168 269.273291 
" clip-path="url(#p69114ee754)" style="fill: #1f77b4; stroke: #000000; stroke-linejoin: miter"/>
   </g>
   <g id="patch_125">
    <path d="M 95.779374 321.25655 
C 104.874173 321.25655 113.597697 317.643148 120.02869 311.212154 
C 126.459684 304.78116 130.073086 296.057636 130.073086 286.962838 
C 130.073086 277.868039 126.459684 269.144515 120.02869 262.713521 
C 113.597697 256.282527 104.874173 252.669125 95.779374 252.669125 
C 86.684575 252.669125 77.961051 256.282527 71.530058 262.713521 
C 65.099064 269.144515 61.485662 277.868039 61.485662 286.962838 
C 61.485662 296.057636 65.099064 304.78116 71.530058 311.212154 
C 77.961051 317.643148 86.684575 321.25655 95.779374 321.25655 
z
" clip-path="url(#p69114ee754)" style="fill: #ffd123; stroke: #000000; stroke-linejoin: miter"/>
   </g>
   <g id="patch_126">
    <path d="M 335.590625 270.162709 
L 332.815082 271.052128 
" clip-path="url(#p69114ee754)" style="fill: #1f77b4; stroke: #000000; stroke-linejoin: miter"/>
   </g>
   <g id="patch_127">
    <path d="M 335.590625 270.162709 
L 332.815082 271.052128 
" clip-path="url(#p69114ee754)" style="fill: #1f77b4; stroke: #000000; stroke-linejoin: miter"/>
   </g>
   <g id="patch_128">
    <path d="M 63.72131 289.729918 
L 60.945767 290.619336 
" clip-path="url(#p69114ee754)" style="fill: #1f77b4; stroke: #000000; stroke-linejoin: miter"/>
   </g>
   <g id="patch_129">
    <path d="M 63.72131 289.729918 
L 60.945767 290.619336 
" clip-path="url(#p69114ee754)" style="fill: #1f77b4; stroke: #000000; stroke-linejoin: miter"/>
   </g>
   <g id="patch_130">
    <path d="M 132.185125 258.446716 
C 141.279924 258.446716 150.003447 254.833314 156.434441 248.40232 
C 162.865435 241.971326 166.478837 233.247802 166.478837 224.153003 
C 166.478837 215.058205 162.865435 206.334681 156.434441 199.903687 
C 150.003447 193.472693 141.279924 189.859291 132.185125 189.859291 
C 123.090326 189.859291 114.366802 193.472693 107.935808 199.903687 
C 101.504814 206.334681 97.891413 215.058205 97.891413 224.153003 
C 97.891413 233.247802 101.504814 241.971326 107.935808 248.40232 
C 114.366802 254.833314 123.090326 258.446716 132.185125 258.446716 
z
" clip-path="url(#p69114ee754)" style="fill: #ffd123; stroke: #000000; stroke-linejoin: miter"/>
   </g>
   <g id="patch_131">
    <path d="M 330.039539 271.941547 
L 327.263996 272.830965 
" clip-path="url(#p69114ee754)" style="fill: #1f77b4; stroke: #000000; stroke-linejoin: miter"/>
   </g>
   <g id="patch_132">
    <path d="M 330.039539 271.941547 
L 327.263996 272.830965 
" clip-path="url(#p69114ee754)" style="fill: #1f77b4; stroke: #000000; stroke-linejoin: miter"/>
   </g>
   <g id="patch_133">
    <path d="M 58.170224 291.508755 
L 55.394681 292.398173 
" clip-path="url(#p69114ee754)" style="fill: #1f77b4; stroke: #000000; stroke-linejoin: miter"/>
   </g>
   <g id="patch_134">
    <path d="M 58.170224 291.508755 
L 55.394681 292.398173 
" clip-path="url(#p69114ee754)" style="fill: #1f77b4; stroke: #000000; stroke-linejoin: miter"/>
   </g>
   <g id="patch_135">
    <path d="M 168.590875 195.636881 
C 177.685674 195.636881 186.409198 192.023479 192.840192 185.592486 
C 199.271186 179.161492 202.884588 170.437968 202.884588 161.343169 
C 202.884588 152.24837 199.271186 143.524847 192.840192 137.093853 
C 186.409198 130.662859 177.685674 127.049457 168.590875 127.049457 
C 159.496077 127.049457 150.772553 130.662859 144.341559 137.093853 
C 137.910565 143.524847 134.297163 152.24837 134.297163 161.343169 
C 134.297163 170.437968 137.910565 179.161492 144.341559 185.592486 
C 150.772553 192.023479 159.496077 195.636881 168.590875 195.636881 
z
" clip-path="url(#p69114ee754)" style="fill: #ffd123; stroke: #000000; stroke-linejoin: miter"/>
   </g>
   <g id="patch_136">
    <path d="M 55.394681 292.398173 
L 55.394681 292.398173 
" clip-path="url(#p69114ee754)" style="fill: #1f77b4; stroke: #000000; stroke-linejoin: miter"/>
   </g>
   <g id="patch_137">
    <path d="M 55.394681 292.398173 
L 55.394681 292.398173 
" clip-path="url(#p69114ee754)" style="fill: #1f77b4; stroke: #000000; stroke-linejoin: miter"/>
   </g>
   <g id="patch_138">
    <path d="M 59.227543 292.398173 
L 55.394681 292.398173 
" clip-path="url(#p69114ee754)" style="fill: #1f77b4; stroke: #000000; stroke-linejoin: miter"/>
   </g>
   <g id="patch_139">
    <path d="M 59.227543 292.398173 
L 55.394681 292.398173 
" clip-path="url(#p69114ee754)" style="fill: #1f77b4; stroke: #000000; stroke-linejoin: miter"/>
   </g>
   <g id="patch_140">
    <path d="M 324.488453 273.720384 
L 321.71291 274.609802 
" clip-path="url(#p69114ee754)" style="fill: #1f77b4; stroke: #000000; stroke-linejoin: miter"/>
   </g>
   <g id="patch_141">
    <path d="M 324.488453 273.720384 
L 321.71291 274.609802 
" clip-path="url(#p69114ee754)" style="fill: #1f77b4; stroke: #000000; stroke-linejoin: miter"/>
   </g>
   <g id="patch_142">
    <path d="M 66.893265 292.398173 
L 63.060404 292.398173 
" clip-path="url(#p69114ee754)" style="fill: #1f77b4; stroke: #000000; stroke-linejoin: miter"/>
   </g>
   <g id="patch_143">
    <path d="M 66.893265 292.398173 
L 63.060404 292.398173 
" clip-path="url(#p69114ee754)" style="fill: #1f77b4; stroke: #000000; stroke-linejoin: miter"/>
   </g>
   <g id="patch_144">
    <path d="M 318.937367 275.499221 
L 316.161824 276.388639 
" clip-path="url(#p69114ee754)" style="fill: #1f77b4; stroke: #000000; stroke-linejoin: miter"/>
   </g>
   <g id="patch_145">
    <path d="M 318.937367 275.499221 
L 316.161824 276.388639 
" clip-path="url(#p69114ee754)" style="fill: #1f77b4; stroke: #000000; stroke-linejoin: miter"/>
   </g>
   <g id="patch_146">
    <path d="M 166.048497 321.25655 
C 175.143296 321.25655 183.86682 317.643148 190.297813 311.212154 
C 196.728807 304.78116 200.342209 296.057636 200.342209 286.962838 
C 200.342209 277.868039 196.728807 269.144515 190.297813 262.713521 
C 183.86682 256.282527 175.143296 252.669125 166.048497 252.669125 
C 156.953698 252.669125 148.230175 256.282527 141.799181 262.713521 
C 135.368187 269.144515 131.754785 277.868039 131.754785 286.962838 
C 131.754785 296.057636 135.368187 304.78116 141.799181 311.212154 
C 148.230175 317.643148 156.953698 321.25655 166.048497 321.25655 
z
" clip-path="url(#p69114ee754)" style="fill: #ffd123; stroke: #000000; stroke-linejoin: miter"/>
   </g>
   <g id="patch_147">
    <path d="M 313.386281 277.278058 
L 310.610738 278.167476 
" clip-path="url(#p69114ee754)" style="fill: #1f77b4; stroke: #000000; stroke-linejoin: miter"/>
   </g>
   <g id="patch_148">
    <path d="M 313.386281 277.278058 
L 310.610738 278.167476 
" clip-path="url(#p69114ee754)" style="fill: #1f77b4; stroke: #000000; stroke-linejoin: miter"/>
   </g>
   <g id="patch_149">
    <path d="M 202.454248 258.446716 
C 211.549047 258.446716 220.27257 254.833314 226.703564 248.40232 
C 233.134558 241.971326 236.74796 233.247802 236.74796 224.153003 
C 236.74796 215.058205 233.134558 206.334681 226.703564 199.903687 
C 220.27257 193.472693 211.549047 189.859291 202.454248 189.859291 
C 193.359449 189.859291 184.635925 193.472693 178.204931 199.903687 
C 171.773937 206.334681 168.160536 215.058205 168.160536 224.153003 
C 168.160536 233.247802 171.773937 241.971326 178.204931 248.40232 
C 184.635925 254.833314 193.359449 258.446716 202.454248 258.446716 
z
" clip-path="url(#p69114ee754)" style="fill: #ffd123; stroke: #000000; stroke-linejoin: miter"/>
   </g>
   <g id="patch_150">
    <path d="M 120.553323 292.398173 
L 116.720462 292.398173 
" clip-path="url(#p69114ee754)" style="fill: #1f77b4; stroke: #000000; stroke-linejoin: miter"/>
   </g>
   <g id="patch_151">
    <path d="M 120.553323 292.398173 
L 116.720462 292.398173 
" clip-path="url(#p69114ee754)" style="fill: #1f77b4; stroke: #000000; stroke-linejoin: miter"/>
   </g>
   <g id="patch_152">
    <path d="M 307.835195 279.056895 
L 305.059652 279.946314 
" clip-path="url(#p69114ee754)" style="fill: #1f77b4; stroke: #000000; stroke-linejoin: miter"/>
   </g>
   <g id="patch_153">
    <path d="M 307.835195 279.056895 
L 305.059652 279.946314 
" clip-path="url(#p69114ee754)" style="fill: #1f77b4; stroke: #000000; stroke-linejoin: miter"/>
   </g>
   <g id="patch_154">
    <path d="M 238.859999 195.636881 
C 247.954797 195.636881 256.678321 192.023479 263.109315 185.592486 
C 269.540309 179.161492 273.153711 170.437968 273.153711 161.343169 
C 273.153711 152.24837 269.540309 143.524847 263.109315 137.093853 
C 256.678321 130.662859 247.954797 127.049457 238.859999 127.049457 
C 229.7652 127.049457 221.041676 130.662859 214.610682 137.093853 
C 208.179688 143.524847 204.566286 152.24837 204.566286 161.343169 
C 204.566286 170.437968 208.179688 179.161492 214.610682 185.592486 
C 221.041676 192.023479 229.7652 195.636881 238.859999 195.636881 
z
" clip-path="url(#p69114ee754)" style="fill: #ffd123; stroke: #000000; stroke-linejoin: miter"/>
   </g>
   <g id="patch_155">
    <path d="M 128.219045 292.398173 
L 124.386184 292.398173 
" clip-path="url(#p69114ee754)" style="fill: #1f77b4; stroke: #000000; stroke-linejoin: miter"/>
   </g>
   <g id="patch_156">
    <path d="M 128.219045 292.398173 
L 124.386184 292.398173 
" clip-path="url(#p69114ee754)" style="fill: #1f77b4; stroke: #000000; stroke-linejoin: miter"/>
   </g>
   <g id="patch_157">
    <path d="M 135.884768 292.398173 
L 132.051907 292.398173 
" clip-path="url(#p69114ee754)" style="fill: #1f77b4; stroke: #000000; stroke-linejoin: miter"/>
   </g>
   <g id="patch_158">
    <path d="M 135.884768 292.398173 
L 132.051907 292.398173 
" clip-path="url(#p69114ee754)" style="fill: #1f77b4; stroke: #000000; stroke-linejoin: miter"/>
   </g>
   <g id="patch_159">
    <path d="M 302.284109 280.835732 
L 299.508566 281.725151 
" clip-path="url(#p69114ee754)" style="fill: #1f77b4; stroke: #000000; stroke-linejoin: miter"/>
   </g>
   <g id="patch_160">
    <path d="M 302.284109 280.835732 
L 299.508566 281.725151 
" clip-path="url(#p69114ee754)" style="fill: #1f77b4; stroke: #000000; stroke-linejoin: miter"/>
   </g>
   <g id="patch_161">
    <path d="M 236.31762 321.25655 
C 245.412419 321.25655 254.135943 317.643148 260.566937 311.212154 
C 266.99793 304.78116 270.611332 296.057636 270.611332 286.962838 
C 270.611332 277.868039 266.99793 269.144515 260.566937 262.713521 
C 254.135943 256.282527 245.412419 252.669125 236.31762 252.669125 
C 227.222821 252.669125 218.499298 256.282527 212.068304 262.713521 
C 205.63731 269.144515 202.023908 277.868039 202.023908 286.962838 
C 202.023908 296.057636 205.63731 304.78116 212.068304 311.212154 
C 218.499298 317.643148 227.222821 321.25655 236.31762 321.25655 
z
" clip-path="url(#p69114ee754)" style="fill: #ffd123; stroke: #000000; stroke-linejoin: miter"/>
   </g>
   <g id="patch_162">
    <path d="M 296.733023 282.614569 
L 293.95748 283.503988 
" clip-path="url(#p69114ee754)" style="fill: #1f77b4; stroke: #000000; stroke-linejoin: miter"/>
   </g>
   <g id="patch_163">
    <path d="M 296.733023 282.614569 
L 293.95748 283.503988 
" clip-path="url(#p69114ee754)" style="fill: #1f77b4; stroke: #000000; stroke-linejoin: miter"/>
   </g>
   <g id="patch_164">
    <path d="M 47.436798 211.942888 
C 56.531597 211.942888 65.25512 208.329486 71.686114 201.898492 
C 78.117108 195.467498 81.73051 186.743975 81.73051 177.649176 
C 81.73051 168.554377 78.117108 159.830853 71.686114 153.399859 
C 65.25512 146.968866 56.531597 143.355464 47.436798 143.355464 
C 38.341999 143.355464 29.618475 146.968866 23.187481 153.399859 
C 16.756488 159.830853 13.143086 168.554377 13.143086 177.649176 
C 13.143086 186.743975 16.756488 195.467498 23.187481 201.898492 
C 29.618475 208.329486 38.341999 211.942888 47.436798 211.942888 
z
" clip-path="url(#p69114ee754)" style="fill: #ffd123; stroke: #000000; stroke-linejoin: miter"/>
   </g>
   <g id="patch_165">
    <path d="M 291.181937 284.393406 
L 288.406394 285.282825 
" clip-path="url(#p69114ee754)" style="fill: #1f77b4; stroke: #000000; stroke-linejoin: miter"/>
   </g>
   <g id="patch_166">
    <path d="M 291.181937 284.393406 
L 288.406394 285.282825 
" clip-path="url(#p69114ee754)" style="fill: #1f77b4; stroke: #000000; stroke-linejoin: miter"/>
   </g>
   <g id="patch_167">
    <path d="M 189.544825 292.398173 
L 185.711964 292.398173 
" clip-path="url(#p69114ee754)" style="fill: #1f77b4; stroke: #000000; stroke-linejoin: miter"/>
   </g>
   <g id="patch_168">
    <path d="M 189.544825 292.398173 
L 185.711964 292.398173 
" clip-path="url(#p69114ee754)" style="fill: #1f77b4; stroke: #000000; stroke-linejoin: miter"/>
   </g>
   <g id="patch_169">
    <path d="M 197.210548 292.398173 
L 193.377687 292.398173 
" clip-path="url(#p69114ee754)" style="fill: #1f77b4; stroke: #000000; stroke-linejoin: miter"/>
   </g>
   <g id="patch_170">
    <path d="M 197.210548 292.398173 
L 193.377687 292.398173 
" clip-path="url(#p69114ee754)" style="fill: #1f77b4; stroke: #000000; stroke-linejoin: miter"/>
   </g>
   <g id="patch_171">
    <path d="M 285.630851 286.172243 
L 282.855308 287.061662 
" clip-path="url(#p69114ee754)" style="fill: #1f77b4; stroke: #000000; stroke-linejoin: miter"/>
   </g>
   <g id="patch_172">
    <path d="M 285.630851 286.172243 
L 282.855308 287.061662 
" clip-path="url(#p69114ee754)" style="fill: #1f77b4; stroke: #000000; stroke-linejoin: miter"/>
   </g>
   <g id="patch_173">
    <path d="M 204.876271 292.398173 
L 201.043409 292.398173 
" clip-path="url(#p69114ee754)" style="fill: #1f77b4; stroke: #000000; stroke-linejoin: miter"/>
   </g>
   <g id="patch_174">
    <path d="M 204.876271 292.398173 
L 201.043409 292.398173 
" clip-path="url(#p69114ee754)" style="fill: #1f77b4; stroke: #000000; stroke-linejoin: miter"/>
   </g>
   <g id="patch_175">
    <path d="M 280.079765 287.95108 
L 277.304223 288.840499 
" clip-path="url(#p69114ee754)" style="fill: #1f77b4; stroke: #000000; stroke-linejoin: miter"/>
   </g>
   <g id="patch_176">
    <path d="M 280.079765 287.95108 
L 277.304223 288.840499 
" clip-path="url(#p69114ee754)" style="fill: #1f77b4; stroke: #000000; stroke-linejoin: miter"/>
   </g>
   <g id="patch_177">
    <path d="M 117.705921 211.942888 
C 126.80072 211.942888 135.524243 208.329486 141.955237 201.898492 
C 148.386231 195.467498 151.999633 186.743975 151.999633 177.649176 
C 151.999633 168.554377 148.386231 159.830853 141.955237 153.399859 
C 135.524243 146.968866 126.80072 143.355464 117.705921 143.355464 
C 108.611122 143.355464 99.887598 146.968866 93.456604 153.399859 
C 87.025611 159.830853 83.412209 168.554377 83.412209 177.649176 
C 83.412209 186.743975 87.025611 195.467498 93.456604 201.898492 
C 99.887598 208.329486 108.611122 211.942888 117.705921 211.942888 
z
" clip-path="url(#p69114ee754)" style="fill: #ffd123; stroke: #000000; stroke-linejoin: miter"/>
   </g>
   <g id="patch_178">
    <path d="M 274.52868 289.729918 
L 271.753137 290.619336 
" clip-path="url(#p69114ee754)" style="fill: #1f77b4; stroke: #000000; stroke-linejoin: miter"/>
   </g>
   <g id="patch_179">
    <path d="M 274.52868 289.729918 
L 271.753137 290.619336 
" clip-path="url(#p69114ee754)" style="fill: #1f77b4; stroke: #000000; stroke-linejoin: miter"/>
   </g>
   <g id="patch_180">
    <path d="M 258.536328 292.398173 
L 254.703467 292.398173 
" clip-path="url(#p69114ee754)" style="fill: #1f77b4; stroke: #000000; stroke-linejoin: miter"/>
   </g>
   <g id="patch_181">
    <path d="M 258.536328 292.398173 
L 254.703467 292.398173 
" clip-path="url(#p69114ee754)" style="fill: #1f77b4; stroke: #000000; stroke-linejoin: miter"/>
   </g>
   <g id="patch_182">
    <path d="M 268.977594 291.508755 
L 266.202051 292.398173 
" clip-path="url(#p69114ee754)" style="fill: #1f77b4; stroke: #000000; stroke-linejoin: miter"/>
   </g>
   <g id="patch_183">
    <path d="M 268.977594 291.508755 
L 266.202051 292.398173 
" clip-path="url(#p69114ee754)" style="fill: #1f77b4; stroke: #000000; stroke-linejoin: miter"/>
   </g>
   <g id="patch_184">
    <path d="M 266.202051 292.398173 
L 262.369189 292.398173 
" clip-path="url(#p69114ee754)" style="fill: #1f77b4; stroke: #000000; stroke-linejoin: miter"/>
   </g>
   <g id="patch_185">
    <path d="M 266.202051 292.398173 
L 262.369189 292.398173 
" clip-path="url(#p69114ee754)" style="fill: #1f77b4; stroke: #000000; stroke-linejoin: miter"/>
   </g>
   <g id="patch_186">
    <path d="M 266.202051 292.398173 
L 266.202051 292.398173 
" clip-path="url(#p69114ee754)" style="fill: #1f77b4; stroke: #000000; stroke-linejoin: miter"/>
   </g>
   <g id="patch_187">
    <path d="M 266.202051 292.398173 
L 266.202051 292.398173 
" clip-path="url(#p69114ee754)" style="fill: #1f77b4; stroke: #000000; stroke-linejoin: miter"/>
   </g>
   <g id="patch_188">
    <path d="M 187.975044 211.942888 
C 197.069843 211.942888 205.793367 208.329486 212.22436 201.898492 
C 218.655354 195.467498 222.268756 186.743975 222.268756 177.649176 
C 222.268756 168.554377 218.655354 159.830853 212.22436 153.399859 
C 205.793367 146.968866 197.069843 143.355464 187.975044 143.355464 
C 178.880245 143.355464 170.156721 146.968866 163.725728 153.399859 
C 157.294734 159.830853 153.681332 168.554377 153.681332 177.649176 
C 153.681332 186.743975 157.294734 195.467498 163.725728 201.898492 
C 170.156721 208.329486 178.880245 211.942888 187.975044 211.942888 
z
" clip-path="url(#p69114ee754)" style="fill: #ffd123; stroke: #000000; stroke-linejoin: miter"/>
   </g>
  </g>
 </g>
 <defs>
  <clipPath id="p69114ee754">
   <rect x="3.00024" y="105.480623" width="425.99952" height="221.038755"/>
  </clipPath>
 </defs>
</svg>
