<?xml version="1.0" encoding="utf-8" standalone="no"?>
<!DOCTYPE svg PUBLIC "-//W3C//DTD SVG 1.1//EN"
  "http://www.w3.org/Graphics/SVG/1.1/DTD/svg11.dtd">
<svg xmlns:xlink="http://www.w3.org/1999/xlink" width="432pt" height="432pt" viewBox="0 0 432 432" xmlns="http://www.w3.org/2000/svg" version="1.1">
 <metadata>
  <rdf:RDF xmlns:dc="http://purl.org/dc/elements/1.1/" xmlns:cc="http://creativecommons.org/ns#" xmlns:rdf="http://www.w3.org/1999/02/22-rdf-syntax-ns#">
   <cc:Work>
    <dc:type rdf:resource="http://purl.org/dc/dcmitype/StillImage"/>
    <dc:date>2024-11-14T15:19:00.661494</dc:date>
    <dc:format>image/svg+xml</dc:format>
    <dc:creator>
     <cc:Agent>
      <dc:title>Matplotlib v3.9.2, https://matplotlib.org/</dc:title>
     </cc:Agent>
    </dc:creator>
   </cc:Work>
  </rdf:RDF>
 </metadata>
 <defs>
  <style type="text/css">*{stroke-linejoin: round; stroke-linecap: butt}</style>
 </defs>
 <g id="figure_1">
  <g id="patch_1">
   <path d="M 0 432 
L 432 432 
L 432 0 
L 0 0 
z
" style="fill: #ffffff"/>
  </g>
  <g id="axes_1">
   <g id="patch_2">
    <path d="M 141.128425 231.849816 
L 141.128425 231.849816 
" clip-path="url(#p752c5936b7)" style="fill: #1f77b4; stroke: #000000; stroke-linejoin: miter"/>
   </g>
   <g id="patch_3">
    <path d="M 141.128425 231.849816 
L 141.128425 231.849816 
" clip-path="url(#p752c5936b7)" style="fill: #1f77b4; stroke: #000000; stroke-linejoin: miter"/>
   </g>
   <g id="patch_4">
    <path d="M 146.368585 231.849816 
L 141.128425 231.849816 
" clip-path="url(#p752c5936b7)" style="fill: #1f77b4; stroke: #000000; stroke-linejoin: miter"/>
   </g>
   <g id="patch_5">
    <path d="M 146.368585 231.849816 
L 141.128425 231.849816 
" clip-path="url(#p752c5936b7)" style="fill: #1f77b4; stroke: #000000; stroke-linejoin: miter"/>
   </g>
   <g id="patch_6">
    <path d="M 141.128425 231.849816 
L 139.772172 233.253913 
" clip-path="url(#p752c5936b7)" style="fill: #1f77b4; stroke: #000000; stroke-linejoin: miter"/>
   </g>
   <g id="patch_7">
    <path d="M 141.128425 231.849816 
L 139.772172 233.253913 
" clip-path="url(#p752c5936b7)" style="fill: #1f77b4; stroke: #000000; stroke-linejoin: miter"/>
   </g>
   <g id="patch_8">
    <path d="M 156.848905 231.849816 
L 151.608745 231.849816 
" clip-path="url(#p752c5936b7)" style="fill: #1f77b4; stroke: #000000; stroke-linejoin: miter"/>
   </g>
   <g id="patch_9">
    <path d="M 156.848905 231.849816 
L 151.608745 231.849816 
" clip-path="url(#p752c5936b7)" style="fill: #1f77b4; stroke: #000000; stroke-linejoin: miter"/>
   </g>
   <g id="patch_10">
    <path d="M 167.329226 231.849816 
L 162.089066 231.849816 
" clip-path="url(#p752c5936b7)" style="fill: #1f77b4; stroke: #000000; stroke-linejoin: miter"/>
   </g>
   <g id="patch_11">
    <path d="M 167.329226 231.849816 
L 162.089066 231.849816 
" clip-path="url(#p752c5936b7)" style="fill: #1f77b4; stroke: #000000; stroke-linejoin: miter"/>
   </g>
   <g id="patch_12">
    <path d="M 177.809546 231.849816 
L 172.569386 231.849816 
" clip-path="url(#p752c5936b7)" style="fill: #1f77b4; stroke: #000000; stroke-linejoin: miter"/>
   </g>
   <g id="patch_13">
    <path d="M 177.809546 231.849816 
L 172.569386 231.849816 
" clip-path="url(#p752c5936b7)" style="fill: #1f77b4; stroke: #000000; stroke-linejoin: miter"/>
   </g>
   <g id="patch_14">
    <path d="M 188.289866 231.849816 
L 183.049706 231.849816 
" clip-path="url(#p752c5936b7)" style="fill: #1f77b4; stroke: #000000; stroke-linejoin: miter"/>
   </g>
   <g id="patch_15">
    <path d="M 188.289866 231.849816 
L 183.049706 231.849816 
" clip-path="url(#p752c5936b7)" style="fill: #1f77b4; stroke: #000000; stroke-linejoin: miter"/>
   </g>
   <g id="patch_16">
    <path d="M 138.415918 234.65801 
L 137.059665 236.062106 
" clip-path="url(#p752c5936b7)" style="fill: #1f77b4; stroke: #000000; stroke-linejoin: miter"/>
   </g>
   <g id="patch_17">
    <path d="M 138.415918 234.65801 
L 137.059665 236.062106 
" clip-path="url(#p752c5936b7)" style="fill: #1f77b4; stroke: #000000; stroke-linejoin: miter"/>
   </g>
   <g id="patch_18">
    <path d="M 198.770187 231.849816 
L 193.530027 231.849816 
" clip-path="url(#p752c5936b7)" style="fill: #1f77b4; stroke: #000000; stroke-linejoin: miter"/>
   </g>
   <g id="patch_19">
    <path d="M 198.770187 231.849816 
L 193.530027 231.849816 
" clip-path="url(#p752c5936b7)" style="fill: #1f77b4; stroke: #000000; stroke-linejoin: miter"/>
   </g>
   <g id="patch_20">
    <path d="M 209.250507 231.849816 
L 204.010347 231.849816 
" clip-path="url(#p752c5936b7)" style="fill: #1f77b4; stroke: #000000; stroke-linejoin: miter"/>
   </g>
   <g id="patch_21">
    <path d="M 209.250507 231.849816 
L 204.010347 231.849816 
" clip-path="url(#p752c5936b7)" style="fill: #1f77b4; stroke: #000000; stroke-linejoin: miter"/>
   </g>
   <g id="patch_22">
    <path d="M 219.730828 231.849816 
L 214.490667 231.849816 
" clip-path="url(#p752c5936b7)" style="fill: #1f77b4; stroke: #000000; stroke-linejoin: miter"/>
   </g>
   <g id="patch_23">
    <path d="M 219.730828 231.849816 
L 214.490667 231.849816 
" clip-path="url(#p752c5936b7)" style="fill: #1f77b4; stroke: #000000; stroke-linejoin: miter"/>
   </g>
   <g id="patch_24">
    <path d="M 135.703412 237.466203 
L 134.347159 238.8703 
" clip-path="url(#p752c5936b7)" style="fill: #1f77b4; stroke: #000000; stroke-linejoin: miter"/>
   </g>
   <g id="patch_25">
    <path d="M 135.703412 237.466203 
L 134.347159 238.8703 
" clip-path="url(#p752c5936b7)" style="fill: #1f77b4; stroke: #000000; stroke-linejoin: miter"/>
   </g>
   <g id="patch_26">
    <path d="M 230.211148 231.849816 
L 224.970988 231.849816 
" clip-path="url(#p752c5936b7)" style="fill: #1f77b4; stroke: #000000; stroke-linejoin: miter"/>
   </g>
   <g id="patch_27">
    <path d="M 230.211148 231.849816 
L 224.970988 231.849816 
" clip-path="url(#p752c5936b7)" style="fill: #1f77b4; stroke: #000000; stroke-linejoin: miter"/>
   </g>
   <g id="patch_28">
    <path d="M 240.691468 231.849816 
L 235.451308 231.849816 
" clip-path="url(#p752c5936b7)" style="fill: #1f77b4; stroke: #000000; stroke-linejoin: miter"/>
   </g>
   <g id="patch_29">
    <path d="M 240.691468 231.849816 
L 235.451308 231.849816 
" clip-path="url(#p752c5936b7)" style="fill: #1f77b4; stroke: #000000; stroke-linejoin: miter"/>
   </g>
   <g id="patch_30">
    <path d="M 251.171789 231.849816 
L 245.931628 231.849816 
" clip-path="url(#p752c5936b7)" style="fill: #1f77b4; stroke: #000000; stroke-linejoin: miter"/>
   </g>
   <g id="patch_31">
    <path d="M 251.171789 231.849816 
L 245.931628 231.849816 
" clip-path="url(#p752c5936b7)" style="fill: #1f77b4; stroke: #000000; stroke-linejoin: miter"/>
   </g>
   <g id="patch_32">
    <path d="M 261.652109 231.849816 
L 256.411949 231.849816 
" clip-path="url(#p752c5936b7)" style="fill: #1f77b4; stroke: #000000; stroke-linejoin: miter"/>
   </g>
   <g id="patch_33">
    <path d="M 261.652109 231.849816 
L 256.411949 231.849816 
" clip-path="url(#p752c5936b7)" style="fill: #1f77b4; stroke: #000000; stroke-linejoin: miter"/>
   </g>
   <g id="patch_34">
    <path d="M 132.990905 240.274397 
L 131.634652 241.678493 
" clip-path="url(#p752c5936b7)" style="fill: #1f77b4; stroke: #000000; stroke-linejoin: miter"/>
   </g>
   <g id="patch_35">
    <path d="M 132.990905 240.274397 
L 131.634652 241.678493 
" clip-path="url(#p752c5936b7)" style="fill: #1f77b4; stroke: #000000; stroke-linejoin: miter"/>
   </g>
   <g id="patch_36">
    <path d="M 272.132429 231.849816 
L 266.892269 231.849816 
" clip-path="url(#p752c5936b7)" style="fill: #1f77b4; stroke: #000000; stroke-linejoin: miter"/>
   </g>
   <g id="patch_37">
    <path d="M 272.132429 231.849816 
L 266.892269 231.849816 
" clip-path="url(#p752c5936b7)" style="fill: #1f77b4; stroke: #000000; stroke-linejoin: miter"/>
   </g>
   <g id="patch_38">
    <path d="M 282.61275 231.849816 
L 277.372589 231.849816 
" clip-path="url(#p752c5936b7)" style="fill: #1f77b4; stroke: #000000; stroke-linejoin: miter"/>
   </g>
   <g id="patch_39">
    <path d="M 282.61275 231.849816 
L 277.372589 231.849816 
" clip-path="url(#p752c5936b7)" style="fill: #1f77b4; stroke: #000000; stroke-linejoin: miter"/>
   </g>
   <g id="patch_40">
    <path d="M 293.09307 231.849816 
L 287.85291 231.849816 
" clip-path="url(#p752c5936b7)" style="fill: #1f77b4; stroke: #000000; stroke-linejoin: miter"/>
   </g>
   <g id="patch_41">
    <path d="M 293.09307 231.849816 
L 287.85291 231.849816 
" clip-path="url(#p752c5936b7)" style="fill: #1f77b4; stroke: #000000; stroke-linejoin: miter"/>
   </g>
   <g id="patch_42">
    <path d="M 303.57339 231.849816 
L 298.33323 231.849816 
" clip-path="url(#p752c5936b7)" style="fill: #1f77b4; stroke: #000000; stroke-linejoin: miter"/>
   </g>
   <g id="patch_43">
    <path d="M 303.57339 231.849816 
L 298.33323 231.849816 
" clip-path="url(#p752c5936b7)" style="fill: #1f77b4; stroke: #000000; stroke-linejoin: miter"/>
   </g>
   <g id="patch_44">
    <path d="M 130.278399 243.08259 
L 128.922146 244.486687 
" clip-path="url(#p752c5936b7)" style="fill: #1f77b4; stroke: #000000; stroke-linejoin: miter"/>
   </g>
   <g id="patch_45">
    <path d="M 130.278399 243.08259 
L 128.922146 244.486687 
" clip-path="url(#p752c5936b7)" style="fill: #1f77b4; stroke: #000000; stroke-linejoin: miter"/>
   </g>
   <g id="patch_46">
    <path d="M 314.053711 231.849816 
L 308.813551 231.849816 
" clip-path="url(#p752c5936b7)" style="fill: #1f77b4; stroke: #000000; stroke-linejoin: miter"/>
   </g>
   <g id="patch_47">
    <path d="M 314.053711 231.849816 
L 308.813551 231.849816 
" clip-path="url(#p752c5936b7)" style="fill: #1f77b4; stroke: #000000; stroke-linejoin: miter"/>
   </g>
   <g id="patch_48">
    <path d="M 324.534031 231.849816 
L 319.293871 231.849816 
" clip-path="url(#p752c5936b7)" style="fill: #1f77b4; stroke: #000000; stroke-linejoin: miter"/>
   </g>
   <g id="patch_49">
    <path d="M 324.534031 231.849816 
L 319.293871 231.849816 
" clip-path="url(#p752c5936b7)" style="fill: #1f77b4; stroke: #000000; stroke-linejoin: miter"/>
   </g>
   <g id="patch_50">
    <path d="M 335.014351 231.849816 
L 329.774191 231.849816 
" clip-path="url(#p752c5936b7)" style="fill: #1f77b4; stroke: #000000; stroke-linejoin: miter"/>
   </g>
   <g id="patch_51">
    <path d="M 335.014351 231.849816 
L 329.774191 231.849816 
" clip-path="url(#p752c5936b7)" style="fill: #1f77b4; stroke: #000000; stroke-linejoin: miter"/>
   </g>
   <g id="patch_52">
    <path d="M 345.494672 231.849816 
L 340.254512 231.849816 
" clip-path="url(#p752c5936b7)" style="fill: #1f77b4; stroke: #000000; stroke-linejoin: miter"/>
   </g>
   <g id="patch_53">
    <path d="M 345.494672 231.849816 
L 340.254512 231.849816 
" clip-path="url(#p752c5936b7)" style="fill: #1f77b4; stroke: #000000; stroke-linejoin: miter"/>
   </g>
   <g id="patch_54">
    <path d="M 355.974992 231.849816 
L 350.734832 231.849816 
" clip-path="url(#p752c5936b7)" style="fill: #1f77b4; stroke: #000000; stroke-linejoin: miter"/>
   </g>
   <g id="patch_55">
    <path d="M 355.974992 231.849816 
L 350.734832 231.849816 
" clip-path="url(#p752c5936b7)" style="fill: #1f77b4; stroke: #000000; stroke-linejoin: miter"/>
   </g>
   <g id="patch_56">
    <path d="M 366.455313 231.849816 
L 361.215152 231.849816 
" clip-path="url(#p752c5936b7)" style="fill: #1f77b4; stroke: #000000; stroke-linejoin: miter"/>
   </g>
   <g id="patch_57">
    <path d="M 366.455313 231.849816 
L 361.215152 231.849816 
" clip-path="url(#p752c5936b7)" style="fill: #1f77b4; stroke: #000000; stroke-linejoin: miter"/>
   </g>
   <g id="patch_58">
    <path d="M 376.935633 231.849816 
L 371.695473 231.849816 
" clip-path="url(#p752c5936b7)" style="fill: #1f77b4; stroke: #000000; stroke-linejoin: miter"/>
   </g>
   <g id="patch_59">
    <path d="M 376.935633 231.849816 
L 371.695473 231.849816 
" clip-path="url(#p752c5936b7)" style="fill: #1f77b4; stroke: #000000; stroke-linejoin: miter"/>
   </g>
   <g id="patch_60">
    <path d="M 387.415953 231.849816 
L 382.175793 231.849816 
" clip-path="url(#p752c5936b7)" style="fill: #1f77b4; stroke: #000000; stroke-linejoin: miter"/>
   </g>
   <g id="patch_61">
    <path d="M 387.415953 231.849816 
L 382.175793 231.849816 
" clip-path="url(#p752c5936b7)" style="fill: #1f77b4; stroke: #000000; stroke-linejoin: miter"/>
   </g>
   <g id="patch_62">
    <path d="M 397.896274 231.849816 
L 392.656113 231.849816 
" clip-path="url(#p752c5936b7)" style="fill: #1f77b4; stroke: #000000; stroke-linejoin: miter"/>
   </g>
   <g id="patch_63">
    <path d="M 397.896274 231.849816 
L 392.656113 231.849816 
" clip-path="url(#p752c5936b7)" style="fill: #1f77b4; stroke: #000000; stroke-linejoin: miter"/>
   </g>
   <g id="patch_64">
    <path d="M 408.376594 231.849816 
L 403.136434 231.849816 
" clip-path="url(#p752c5936b7)" style="fill: #1f77b4; stroke: #000000; stroke-linejoin: miter"/>
   </g>
   <g id="patch_65">
    <path d="M 408.376594 231.849816 
L 403.136434 231.849816 
" clip-path="url(#p752c5936b7)" style="fill: #1f77b4; stroke: #000000; stroke-linejoin: miter"/>
   </g>
   <g id="patch_66">
    <path d="M 418.856914 231.849816 
L 413.616754 231.849816 
" clip-path="url(#p752c5936b7)" style="fill: #1f77b4; stroke: #000000; stroke-linejoin: miter"/>
   </g>
   <g id="patch_67">
    <path d="M 418.856914 231.849816 
L 413.616754 231.849816 
" clip-path="url(#p752c5936b7)" style="fill: #1f77b4; stroke: #000000; stroke-linejoin: miter"/>
   </g>
   <g id="patch_68">
    <path d="M 170.89651 225.815835 
C 183.367526 225.815835 195.32944 220.861048 204.14778 212.042708 
C 212.96612 203.224368 217.920907 191.262454 217.920907 178.791438 
C 217.920907 166.320422 212.96612 154.358507 204.14778 145.540168 
C 195.32944 136.721828 183.367526 131.76704 170.89651 131.76704 
C 158.425494 131.76704 146.463579 136.721828 137.645239 145.540168 
C 128.826899 154.358507 123.872112 166.320422 123.872112 178.791438 
C 123.872112 191.262454 128.826899 203.224368 137.645239 212.042708 
C 146.463579 220.861048 158.425494 225.815835 170.89651 225.815835 
z
" clip-path="url(#p752c5936b7)" style="fill: #d0d0e0; stroke: #000000; stroke-linejoin: miter"/>
   </g>
   <g id="patch_69">
    <path d="M 418.856914 231.849816 
L 418.856914 231.849816 
" clip-path="url(#p752c5936b7)" style="fill: #1f77b4; stroke: #000000; stroke-linejoin: miter"/>
   </g>
   <g id="patch_70">
    <path d="M 418.856914 231.849816 
L 418.856914 231.849816 
" clip-path="url(#p752c5936b7)" style="fill: #1f77b4; stroke: #000000; stroke-linejoin: miter"/>
   </g>
   <g id="patch_71">
    <path d="M 418.856914 231.849816 
L 417.500661 233.253913 
" clip-path="url(#p752c5936b7)" style="fill: #1f77b4; stroke: #000000; stroke-linejoin: miter"/>
   </g>
   <g id="patch_72">
    <path d="M 418.856914 231.849816 
L 417.500661 233.253913 
" clip-path="url(#p752c5936b7)" style="fill: #1f77b4; stroke: #000000; stroke-linejoin: miter"/>
   </g>
   <g id="patch_73">
    <path d="M 416.144408 234.65801 
L 414.788155 236.062106 
" clip-path="url(#p752c5936b7)" style="fill: #1f77b4; stroke: #000000; stroke-linejoin: miter"/>
   </g>
   <g id="patch_74">
    <path d="M 416.144408 234.65801 
L 414.788155 236.062106 
" clip-path="url(#p752c5936b7)" style="fill: #1f77b4; stroke: #000000; stroke-linejoin: miter"/>
   </g>
   <g id="patch_75">
    <path d="M 117.167951 303.679922 
C 129.638967 303.679922 141.600881 298.725135 150.419221 289.906795 
C 159.237561 281.088455 164.192348 269.126541 164.192348 256.655525 
C 164.192348 244.184509 159.237561 232.222594 150.419221 223.404254 
C 141.600881 214.585914 129.638967 209.631127 117.167951 209.631127 
C 104.696935 209.631127 92.73502 214.585914 83.91668 223.404254 
C 75.098341 232.222594 70.143553 244.184509 70.143553 256.655525 
C 70.143553 269.126541 75.098341 281.088455 83.91668 289.906795 
C 92.73502 298.725135 104.696935 303.679922 117.167951 303.679922 
z
" clip-path="url(#p752c5936b7)" style="fill: #d0d0e0; stroke: #000000; stroke-linejoin: miter"/>
   </g>
   <g id="patch_76">
    <path d="M 413.431901 237.466203 
L 412.075648 238.8703 
" clip-path="url(#p752c5936b7)" style="fill: #1f77b4; stroke: #000000; stroke-linejoin: miter"/>
   </g>
   <g id="patch_77">
    <path d="M 413.431901 237.466203 
L 412.075648 238.8703 
" clip-path="url(#p752c5936b7)" style="fill: #1f77b4; stroke: #000000; stroke-linejoin: miter"/>
   </g>
   <g id="patch_78">
    <path d="M 263.472673 225.815835 
C 275.943689 225.815835 287.905603 220.861048 296.723943 212.042708 
C 305.542283 203.224368 310.49707 191.262454 310.49707 178.791438 
C 310.49707 166.320422 305.542283 154.358507 296.723943 145.540168 
C 287.905603 136.721828 275.943689 131.76704 263.472673 131.76704 
C 251.001657 131.76704 239.039743 136.721828 230.221403 145.540168 
C 221.403063 154.358507 216.448275 166.320422 216.448275 178.791438 
C 216.448275 191.262454 221.403063 203.224368 230.221403 212.042708 
C 239.039743 220.861048 251.001657 225.815835 263.472673 225.815835 
z
" clip-path="url(#p752c5936b7)" style="fill: #d0d0e0; stroke: #000000; stroke-linejoin: miter"/>
   </g>
   <g id="patch_79">
    <path d="M 410.719395 240.274397 
L 409.363142 241.678493 
" clip-path="url(#p752c5936b7)" style="fill: #1f77b4; stroke: #000000; stroke-linejoin: miter"/>
   </g>
   <g id="patch_80">
    <path d="M 410.719395 240.274397 
L 409.363142 241.678493 
" clip-path="url(#p752c5936b7)" style="fill: #1f77b4; stroke: #000000; stroke-linejoin: miter"/>
   </g>
   <g id="patch_81">
    <path d="M 209.744114 303.679922 
C 222.21513 303.679922 234.177044 298.725135 242.995384 289.906795 
C 251.813724 281.088455 256.768511 269.126541 256.768511 256.655525 
C 256.768511 244.184509 251.813724 232.222594 242.995384 223.404254 
C 234.177044 214.585914 222.21513 209.631127 209.744114 209.631127 
C 197.273098 209.631127 185.311184 214.585914 176.492844 223.404254 
C 167.674504 232.222594 162.719716 244.184509 162.719716 256.655525 
C 162.719716 269.126541 167.674504 281.088455 176.492844 289.906795 
C 185.311184 298.725135 197.273098 303.679922 209.744114 303.679922 
z
" clip-path="url(#p752c5936b7)" style="fill: #d0d0e0; stroke: #000000; stroke-linejoin: miter"/>
   </g>
   <g id="patch_82">
    <path d="M 408.006888 243.08259 
L 406.650635 244.486687 
" clip-path="url(#p752c5936b7)" style="fill: #1f77b4; stroke: #000000; stroke-linejoin: miter"/>
   </g>
   <g id="patch_83">
    <path d="M 408.006888 243.08259 
L 406.650635 244.486687 
" clip-path="url(#p752c5936b7)" style="fill: #1f77b4; stroke: #000000; stroke-linejoin: miter"/>
   </g>
   <g id="patch_84">
    <path d="M 108.088431 172.757456 
C 120.559447 172.757456 132.521362 167.802669 141.339702 158.984329 
C 150.158042 150.165989 155.112829 138.204075 155.112829 125.733059 
C 155.112829 113.262043 150.158042 101.300129 141.339702 92.481789 
C 132.521362 83.663449 120.559447 78.708662 108.088431 78.708662 
C 95.617415 78.708662 83.655501 83.663449 74.837161 92.481789 
C 66.018821 101.300129 61.064034 113.262043 61.064034 125.733059 
C 61.064034 138.204075 66.018821 150.165989 74.837161 158.984329 
C 83.655501 167.802669 95.617415 172.757456 108.088431 172.757456 
z
" clip-path="url(#p752c5936b7)" style="fill: #d0d0e0; stroke: #000000; stroke-linejoin: miter"/>
   </g>
   <g id="patch_85">
    <path d="M 356.048836 225.815835 
C 368.519852 225.815835 380.481766 220.861048 389.300106 212.042708 
C 398.118446 203.224368 403.073233 191.262454 403.073233 178.791438 
C 403.073233 166.320422 398.118446 154.358507 389.300106 145.540168 
C 380.481766 136.721828 368.519852 131.76704 356.048836 131.76704 
C 343.57782 131.76704 331.615906 136.721828 322.797566 145.540168 
C 313.979226 154.358507 309.024439 166.320422 309.024439 178.791438 
C 309.024439 191.262454 313.979226 203.224368 322.797566 212.042708 
C 331.615906 220.861048 343.57782 225.815835 356.048836 225.815835 
z
" clip-path="url(#p752c5936b7)" style="fill: #d0d0e0; stroke: #000000; stroke-linejoin: miter"/>
   </g>
   <g id="patch_86">
    <path d="M 405.294382 245.890783 
L 403.938128 247.29488 
" clip-path="url(#p752c5936b7)" style="fill: #1f77b4; stroke: #000000; stroke-linejoin: miter"/>
   </g>
   <g id="patch_87">
    <path d="M 405.294382 245.890783 
L 403.938128 247.29488 
" clip-path="url(#p752c5936b7)" style="fill: #1f77b4; stroke: #000000; stroke-linejoin: miter"/>
   </g>
   <g id="patch_88">
    <path d="M 105.86584 268.35633 
L 104.509587 269.760427 
" clip-path="url(#p752c5936b7)" style="fill: #1f77b4; stroke: #000000; stroke-linejoin: miter"/>
   </g>
   <g id="patch_89">
    <path d="M 105.86584 268.35633 
L 104.509587 269.760427 
" clip-path="url(#p752c5936b7)" style="fill: #1f77b4; stroke: #000000; stroke-linejoin: miter"/>
   </g>
   <g id="patch_90">
    <path d="M 402.581875 248.698977 
L 401.225622 250.103073 
" clip-path="url(#p752c5936b7)" style="fill: #1f77b4; stroke: #000000; stroke-linejoin: miter"/>
   </g>
   <g id="patch_91">
    <path d="M 402.581875 248.698977 
L 401.225622 250.103073 
" clip-path="url(#p752c5936b7)" style="fill: #1f77b4; stroke: #000000; stroke-linejoin: miter"/>
   </g>
   <g id="patch_92">
    <path d="M 302.320277 303.679922 
C 314.791293 303.679922 326.753207 298.725135 335.571547 289.906795 
C 344.389887 281.088455 349.344674 269.126541 349.344674 256.655525 
C 349.344674 244.184509 344.389887 232.222594 335.571547 223.404254 
C 326.753207 214.585914 314.791293 209.631127 302.320277 209.631127 
C 289.849261 209.631127 277.887347 214.585914 269.069007 223.404254 
C 260.250667 232.222594 255.29588 244.184509 255.29588 256.655525 
C 255.29588 269.126541 260.250667 281.088455 269.069007 289.906795 
C 277.887347 298.725135 289.849261 303.679922 302.320277 303.679922 
z
" clip-path="url(#p752c5936b7)" style="fill: #d0d0e0; stroke: #000000; stroke-linejoin: miter"/>
   </g>
   <g id="patch_93">
    <path d="M 399.869369 251.50717 
L 398.513115 252.911267 
" clip-path="url(#p752c5936b7)" style="fill: #1f77b4; stroke: #000000; stroke-linejoin: miter"/>
   </g>
   <g id="patch_94">
    <path d="M 399.869369 251.50717 
L 398.513115 252.911267 
" clip-path="url(#p752c5936b7)" style="fill: #1f77b4; stroke: #000000; stroke-linejoin: miter"/>
   </g>
   <g id="patch_95">
    <path d="M 200.664594 172.757456 
C 213.13561 172.757456 225.097525 167.802669 233.915865 158.984329 
C 242.734205 150.165989 247.688992 138.204075 247.688992 125.733059 
C 247.688992 113.262043 242.734205 101.300129 233.915865 92.481789 
C 225.097525 83.663449 213.13561 78.708662 200.664594 78.708662 
C 188.193579 78.708662 176.231664 83.663449 167.413324 92.481789 
C 158.594984 101.300129 153.640197 113.262043 153.640197 125.733059 
C 153.640197 138.204075 158.594984 150.165989 167.413324 158.984329 
C 176.231664 167.802669 188.193579 172.757456 200.664594 172.757456 
z
" clip-path="url(#p752c5936b7)" style="fill: #d0d0e0; stroke: #000000; stroke-linejoin: miter"/>
   </g>
   <g id="patch_96">
    <path d="M 397.156862 254.315363 
L 395.800609 255.71946 
" clip-path="url(#p752c5936b7)" style="fill: #1f77b4; stroke: #000000; stroke-linejoin: miter"/>
   </g>
   <g id="patch_97">
    <path d="M 397.156862 254.315363 
L 395.800609 255.71946 
" clip-path="url(#p752c5936b7)" style="fill: #1f77b4; stroke: #000000; stroke-linejoin: miter"/>
   </g>
   <g id="patch_98">
    <path d="M 146.936036 250.621543 
C 159.407051 250.621543 171.368966 245.666756 180.187306 236.848416 
C 189.005646 228.030076 193.960433 216.068162 193.960433 203.597146 
C 193.960433 191.12613 189.005646 179.164216 180.187306 170.345876 
C 171.368966 161.527536 159.407051 156.572749 146.936036 156.572749 
C 134.46502 156.572749 122.503105 161.527536 113.684765 170.345876 
C 104.866425 179.164216 99.911638 191.12613 99.911638 203.597146 
C 99.911638 216.068162 104.866425 228.030076 113.684765 236.848416 
C 122.503105 245.666756 134.46502 250.621543 146.936036 250.621543 
z
" clip-path="url(#p752c5936b7)" style="fill: #d0d0e0; stroke: #000000; stroke-linejoin: miter"/>
   </g>
   <g id="patch_99">
    <path d="M 394.444356 257.123557 
L 393.088102 258.527654 
" clip-path="url(#p752c5936b7)" style="fill: #1f77b4; stroke: #000000; stroke-linejoin: miter"/>
   </g>
   <g id="patch_100">
    <path d="M 394.444356 257.123557 
L 393.088102 258.527654 
" clip-path="url(#p752c5936b7)" style="fill: #1f77b4; stroke: #000000; stroke-linejoin: miter"/>
   </g>
   <g id="patch_101">
    <path d="M 293.240758 172.757456 
C 305.711774 172.757456 317.673688 167.802669 326.492028 158.984329 
C 335.310368 150.165989 340.265155 138.204075 340.265155 125.733059 
C 340.265155 113.262043 335.310368 101.300129 326.492028 92.481789 
C 317.673688 83.663449 305.711774 78.708662 293.240758 78.708662 
C 280.769742 78.708662 268.807827 83.663449 259.989487 92.481789 
C 251.171147 101.300129 246.21636 113.262043 246.21636 125.733059 
C 246.21636 138.204075 251.171147 150.165989 259.989487 158.984329 
C 268.807827 167.802669 280.769742 172.757456 293.240758 172.757456 
z
" clip-path="url(#p752c5936b7)" style="fill: #d0d0e0; stroke: #000000; stroke-linejoin: miter"/>
   </g>
   <g id="patch_102">
    <path d="M 391.731849 259.93175 
L 390.375596 261.335847 
" clip-path="url(#p752c5936b7)" style="fill: #1f77b4; stroke: #000000; stroke-linejoin: miter"/>
   </g>
   <g id="patch_103">
    <path d="M 391.731849 259.93175 
L 390.375596 261.335847 
" clip-path="url(#p752c5936b7)" style="fill: #1f77b4; stroke: #000000; stroke-linejoin: miter"/>
   </g>
   <g id="patch_104">
    <path d="M 93.207477 328.48563 
C 105.678492 328.48563 117.640407 323.530843 126.458747 314.712503 
C 135.277087 305.894163 140.231874 293.932249 140.231874 281.461233 
C 140.231874 268.990217 135.277087 257.028302 126.458747 248.209962 
C 117.640407 239.391623 105.678492 234.436835 93.207477 234.436835 
C 80.736461 234.436835 68.774546 239.391623 59.956206 248.209962 
C 51.137866 257.028302 46.183079 268.990217 46.183079 281.461233 
C 46.183079 293.932249 51.137866 305.894163 59.956206 314.712503 
C 68.774546 323.530843 80.736461 328.48563 93.207477 328.48563 
z
" clip-path="url(#p752c5936b7)" style="fill: #d0d0e0; stroke: #000000; stroke-linejoin: miter"/>
   </g>
   <g id="patch_105">
    <path d="M 239.512199 250.621543 
C 251.983215 250.621543 263.945129 245.666756 272.763469 236.848416 
C 281.581809 228.030076 286.536596 216.068162 286.536596 203.597146 
C 286.536596 191.12613 281.581809 179.164216 272.763469 170.345876 
C 263.945129 161.527536 251.983215 156.572749 239.512199 156.572749 
C 227.041183 156.572749 215.079268 161.527536 206.260928 170.345876 
C 197.442588 179.164216 192.487801 191.12613 192.487801 203.597146 
C 192.487801 216.068162 197.442588 228.030076 206.260928 236.848416 
C 215.079268 245.666756 227.041183 250.621543 239.512199 250.621543 
z
" clip-path="url(#p752c5936b7)" style="fill: #d0d0e0; stroke: #000000; stroke-linejoin: miter"/>
   </g>
   <g id="patch_106">
    <path d="M 389.019343 262.739944 
L 387.663089 264.14404 
" clip-path="url(#p752c5936b7)" style="fill: #1f77b4; stroke: #000000; stroke-linejoin: miter"/>
   </g>
   <g id="patch_107">
    <path d="M 389.019343 262.739944 
L 387.663089 264.14404 
" clip-path="url(#p752c5936b7)" style="fill: #1f77b4; stroke: #000000; stroke-linejoin: miter"/>
   </g>
   <g id="patch_108">
    <path d="M 386.306836 265.548137 
L 384.950583 266.952234 
" clip-path="url(#p752c5936b7)" style="fill: #1f77b4; stroke: #000000; stroke-linejoin: miter"/>
   </g>
   <g id="patch_109">
    <path d="M 386.306836 265.548137 
L 384.950583 266.952234 
" clip-path="url(#p752c5936b7)" style="fill: #1f77b4; stroke: #000000; stroke-linejoin: miter"/>
   </g>
   <g id="patch_110">
    <path d="M 185.78364 328.48563 
C 198.254656 328.48563 210.21657 323.530843 219.03491 314.712503 
C 227.85325 305.894163 232.808037 293.932249 232.808037 281.461233 
C 232.808037 268.990217 227.85325 257.028302 219.03491 248.209962 
C 210.21657 239.391623 198.254656 234.436835 185.78364 234.436835 
C 173.312624 234.436835 161.350709 239.391623 152.532369 248.209962 
C 143.71403 257.028302 138.759242 268.990217 138.759242 281.461233 
C 138.759242 293.932249 143.71403 305.894163 152.532369 314.712503 
C 161.350709 323.530843 173.312624 328.48563 185.78364 328.48563 
z
" clip-path="url(#p752c5936b7)" style="fill: #d0d0e0; stroke: #000000; stroke-linejoin: miter"/>
   </g>
   <g id="patch_111">
    <path d="M 383.59433 268.35633 
L 382.238076 269.760427 
" clip-path="url(#p752c5936b7)" style="fill: #1f77b4; stroke: #000000; stroke-linejoin: miter"/>
   </g>
   <g id="patch_112">
    <path d="M 383.59433 268.35633 
L 382.238076 269.760427 
" clip-path="url(#p752c5936b7)" style="fill: #1f77b4; stroke: #000000; stroke-linejoin: miter"/>
   </g>
   <g id="patch_113">
    <path d="M 84.127957 197.563165 
C 96.598973 197.563165 108.560887 192.608377 117.379227 183.790038 
C 126.197567 174.971698 131.152355 163.009783 131.152355 150.538767 
C 131.152355 138.067751 126.197567 126.105837 117.379227 117.287497 
C 108.560887 108.469157 96.598973 103.51437 84.127957 103.51437 
C 71.656941 103.51437 59.695027 108.469157 50.876687 117.287497 
C 42.058347 126.105837 37.10356 138.067751 37.10356 150.538767 
C 37.10356 163.009783 42.058347 174.971698 50.876687 183.790038 
C 59.695027 192.608377 71.656941 197.563165 84.127957 197.563165 
z
" clip-path="url(#p752c5936b7)" style="fill: #d0d0e0; stroke: #000000; stroke-linejoin: miter"/>
   </g>
   <g id="patch_114">
    <path d="M 332.088362 250.621543 
C 344.559378 250.621543 356.521292 245.666756 365.339632 236.848416 
C 374.157972 228.030076 379.112759 216.068162 379.112759 203.597146 
C 379.112759 191.12613 374.157972 179.164216 365.339632 170.345876 
C 356.521292 161.527536 344.559378 156.572749 332.088362 156.572749 
C 319.617346 156.572749 307.655432 161.527536 298.837092 170.345876 
C 290.018752 179.164216 285.063964 191.12613 285.063964 203.597146 
C 285.063964 216.068162 290.018752 228.030076 298.837092 236.848416 
C 307.655432 245.666756 319.617346 250.621543 332.088362 250.621543 
z
" clip-path="url(#p752c5936b7)" style="fill: #d0d0e0; stroke: #000000; stroke-linejoin: miter"/>
   </g>
   <g id="patch_115">
    <path d="M 380.881823 271.164524 
L 379.52557 272.56862 
" clip-path="url(#p752c5936b7)" style="fill: #1f77b4; stroke: #000000; stroke-linejoin: miter"/>
   </g>
   <g id="patch_116">
    <path d="M 380.881823 271.164524 
L 379.52557 272.56862 
" clip-path="url(#p752c5936b7)" style="fill: #1f77b4; stroke: #000000; stroke-linejoin: miter"/>
   </g>
   <g id="patch_117">
    <path d="M 81.453282 293.630071 
L 80.097028 295.034167 
" clip-path="url(#p752c5936b7)" style="fill: #1f77b4; stroke: #000000; stroke-linejoin: miter"/>
   </g>
   <g id="patch_118">
    <path d="M 81.453282 293.630071 
L 80.097028 295.034167 
" clip-path="url(#p752c5936b7)" style="fill: #1f77b4; stroke: #000000; stroke-linejoin: miter"/>
   </g>
   <g id="patch_119">
    <path d="M 278.359803 328.48563 
C 290.830819 328.48563 302.792733 323.530843 311.611073 314.712503 
C 320.429413 305.894163 325.3842 293.932249 325.3842 281.461233 
C 325.3842 268.990217 320.429413 257.028302 311.611073 248.209962 
C 302.792733 239.391623 290.830819 234.436835 278.359803 234.436835 
C 265.888787 234.436835 253.926873 239.391623 245.108533 248.209962 
C 236.290193 257.028302 231.335406 268.990217 231.335406 281.461233 
C 231.335406 293.932249 236.290193 305.894163 245.108533 314.712503 
C 253.926873 323.530843 265.888787 328.48563 278.359803 328.48563 
z
" clip-path="url(#p752c5936b7)" style="fill: #d0d0e0; stroke: #000000; stroke-linejoin: miter"/>
   </g>
   <g id="patch_120">
    <path d="M 378.169317 273.972717 
L 376.813063 275.376814 
" clip-path="url(#p752c5936b7)" style="fill: #1f77b4; stroke: #000000; stroke-linejoin: miter"/>
   </g>
   <g id="patch_121">
    <path d="M 378.169317 273.972717 
L 376.813063 275.376814 
" clip-path="url(#p752c5936b7)" style="fill: #1f77b4; stroke: #000000; stroke-linejoin: miter"/>
   </g>
   <g id="patch_122">
    <path d="M 176.70412 197.563165 
C 189.175136 197.563165 201.137051 192.608377 209.955391 183.790038 
C 218.773731 174.971698 223.728518 163.009783 223.728518 150.538767 
C 223.728518 138.067751 218.773731 126.105837 209.955391 117.287497 
C 201.137051 108.469157 189.175136 103.51437 176.70412 103.51437 
C 164.233104 103.51437 152.27119 108.469157 143.45285 117.287497 
C 134.63451 126.105837 129.679723 138.067751 129.679723 150.538767 
C 129.679723 163.009783 134.63451 174.971698 143.45285 183.790038 
C 152.27119 192.608377 164.233104 197.563165 176.70412 197.563165 
z
" clip-path="url(#p752c5936b7)" style="fill: #d0d0e0; stroke: #000000; stroke-linejoin: miter"/>
   </g>
   <g id="patch_123">
    <path d="M 375.45681 276.78091 
L 374.100557 278.185007 
" clip-path="url(#p752c5936b7)" style="fill: #1f77b4; stroke: #000000; stroke-linejoin: miter"/>
   </g>
   <g id="patch_124">
    <path d="M 375.45681 276.78091 
L 374.100557 278.185007 
" clip-path="url(#p752c5936b7)" style="fill: #1f77b4; stroke: #000000; stroke-linejoin: miter"/>
   </g>
   <g id="patch_125">
    <path d="M 372.744304 279.589104 
L 371.38805 280.993201 
" clip-path="url(#p752c5936b7)" style="fill: #1f77b4; stroke: #000000; stroke-linejoin: miter"/>
   </g>
   <g id="patch_126">
    <path d="M 372.744304 279.589104 
L 371.38805 280.993201 
" clip-path="url(#p752c5936b7)" style="fill: #1f77b4; stroke: #000000; stroke-linejoin: miter"/>
   </g>
   <g id="patch_127">
    <path d="M 122.975561 275.427251 
C 135.446577 275.427251 147.408492 270.472464 156.226832 261.654124 
C 165.045172 252.835784 169.999959 240.87387 169.999959 228.402854 
C 169.999959 215.931838 165.045172 203.969924 156.226832 195.151584 
C 147.408492 186.333244 135.446577 181.378457 122.975561 181.378457 
C 110.504545 181.378457 98.542631 186.333244 89.724291 195.151584 
C 80.905951 203.969924 75.951164 215.931838 75.951164 228.402854 
C 75.951164 240.87387 80.905951 252.835784 89.724291 261.654124 
C 98.542631 270.472464 110.504545 275.427251 122.975561 275.427251 
z
" clip-path="url(#p752c5936b7)" style="fill: #d0d0e0; stroke: #000000; stroke-linejoin: miter"/>
   </g>
   <g id="patch_128">
    <path d="M 370.031797 282.397297 
L 368.675544 283.801394 
" clip-path="url(#p752c5936b7)" style="fill: #1f77b4; stroke: #000000; stroke-linejoin: miter"/>
   </g>
   <g id="patch_129">
    <path d="M 370.031797 282.397297 
L 368.675544 283.801394 
" clip-path="url(#p752c5936b7)" style="fill: #1f77b4; stroke: #000000; stroke-linejoin: miter"/>
   </g>
   <g id="patch_130">
    <path d="M 269.280284 197.563165 
C 281.751299 197.563165 293.713214 192.608377 302.531554 183.790038 
C 311.349894 174.971698 316.304681 163.009783 316.304681 150.538767 
C 316.304681 138.067751 311.349894 126.105837 302.531554 117.287497 
C 293.713214 108.469157 281.751299 103.51437 269.280284 103.51437 
C 256.809268 103.51437 244.847353 108.469157 236.029013 117.287497 
C 227.210673 126.105837 222.255886 138.067751 222.255886 150.538767 
C 222.255886 163.009783 227.210673 174.971698 236.029013 183.790038 
C 244.847353 192.608377 256.809268 197.563165 269.280284 197.563165 
z
" clip-path="url(#p752c5936b7)" style="fill: #d0d0e0; stroke: #000000; stroke-linejoin: miter"/>
   </g>
   <g id="patch_131">
    <path d="M 69.247002 353.291338 
C 81.718018 353.291338 93.679933 348.336551 102.498273 339.518211 
C 111.316613 330.699871 116.2714 318.737957 116.2714 306.266941 
C 116.2714 293.795925 111.316613 281.834011 102.498273 273.015671 
C 93.679933 264.197331 81.718018 259.242544 69.247002 259.242544 
C 56.775986 259.242544 44.814072 264.197331 35.995732 273.015671 
C 27.177392 281.834011 22.222605 293.795925 22.222605 306.266941 
C 22.222605 318.737957 27.177392 330.699871 35.995732 339.518211 
C 44.814072 348.336551 56.775986 353.291338 69.247002 353.291338 
z
" clip-path="url(#p752c5936b7)" style="fill: #d0d0e0; stroke: #000000; stroke-linejoin: miter"/>
   </g>
   <g id="patch_132">
    <path d="M 367.319291 285.205491 
L 365.963037 286.609587 
" clip-path="url(#p752c5936b7)" style="fill: #1f77b4; stroke: #000000; stroke-linejoin: miter"/>
   </g>
   <g id="patch_133">
    <path d="M 367.319291 285.205491 
L 365.963037 286.609587 
" clip-path="url(#p752c5936b7)" style="fill: #1f77b4; stroke: #000000; stroke-linejoin: miter"/>
   </g>
   <g id="patch_134">
    <path d="M 215.551725 275.427251 
C 228.02274 275.427251 239.984655 270.472464 248.802995 261.654124 
C 257.621335 252.835784 262.576122 240.87387 262.576122 228.402854 
C 262.576122 215.931838 257.621335 203.969924 248.802995 195.151584 
C 239.984655 186.333244 228.02274 181.378457 215.551725 181.378457 
C 203.080709 181.378457 191.118794 186.333244 182.300454 195.151584 
C 173.482114 203.969924 168.527327 215.931838 168.527327 228.402854 
C 168.527327 240.87387 173.482114 252.835784 182.300454 261.654124 
C 191.118794 270.472464 203.080709 275.427251 215.551725 275.427251 
z
" clip-path="url(#p752c5936b7)" style="fill: #d0d0e0; stroke: #000000; stroke-linejoin: miter"/>
   </g>
   <g id="patch_135">
    <path d="M 364.606784 288.013684 
L 363.250531 289.417781 
" clip-path="url(#p752c5936b7)" style="fill: #1f77b4; stroke: #000000; stroke-linejoin: miter"/>
   </g>
   <g id="patch_136">
    <path d="M 364.606784 288.013684 
L 363.250531 289.417781 
" clip-path="url(#p752c5936b7)" style="fill: #1f77b4; stroke: #000000; stroke-linejoin: miter"/>
   </g>
   <g id="patch_137">
    <path d="M 116.408444 306.266941 
L 111.168284 306.266941 
" clip-path="url(#p752c5936b7)" style="fill: #1f77b4; stroke: #000000; stroke-linejoin: miter"/>
   </g>
   <g id="patch_138">
    <path d="M 116.408444 306.266941 
L 111.168284 306.266941 
" clip-path="url(#p752c5936b7)" style="fill: #1f77b4; stroke: #000000; stroke-linejoin: miter"/>
   </g>
   <g id="patch_139">
    <path d="M 361.894278 290.821877 
L 360.538024 292.225974 
" clip-path="url(#p752c5936b7)" style="fill: #1f77b4; stroke: #000000; stroke-linejoin: miter"/>
   </g>
   <g id="patch_140">
    <path d="M 361.894278 290.821877 
L 360.538024 292.225974 
" clip-path="url(#p752c5936b7)" style="fill: #1f77b4; stroke: #000000; stroke-linejoin: miter"/>
   </g>
   <g id="patch_141">
    <path d="M 161.823166 353.291338 
C 174.294182 353.291338 186.256096 348.336551 195.074436 339.518211 
C 203.892776 330.699871 208.847563 318.737957 208.847563 306.266941 
C 208.847563 293.795925 203.892776 281.834011 195.074436 273.015671 
C 186.256096 264.197331 174.294182 259.242544 161.823166 259.242544 
C 149.35215 259.242544 137.390235 264.197331 128.571895 273.015671 
C 119.753555 281.834011 114.798768 293.795925 114.798768 306.266941 
C 114.798768 318.737957 119.753555 330.699871 128.571895 339.518211 
C 137.390235 348.336551 149.35215 353.291338 161.823166 353.291338 
z
" clip-path="url(#p752c5936b7)" style="fill: #d0d0e0; stroke: #000000; stroke-linejoin: miter"/>
   </g>
   <g id="patch_142">
    <path d="M 359.181771 293.630071 
L 357.825518 295.034167 
" clip-path="url(#p752c5936b7)" style="fill: #1f77b4; stroke: #000000; stroke-linejoin: miter"/>
   </g>
   <g id="patch_143">
    <path d="M 359.181771 293.630071 
L 357.825518 295.034167 
" clip-path="url(#p752c5936b7)" style="fill: #1f77b4; stroke: #000000; stroke-linejoin: miter"/>
   </g>
   <g id="patch_144">
    <path d="M 60.167483 222.368873 
C 72.638499 222.368873 84.600413 217.414086 93.418753 208.595746 
C 102.237093 199.777406 107.19188 187.815491 107.19188 175.344475 
C 107.19188 162.873459 102.237093 150.911545 93.418753 142.093205 
C 84.600413 133.274865 72.638499 128.320078 60.167483 128.320078 
C 47.696467 128.320078 35.734553 133.274865 26.916213 142.093205 
C 18.097873 150.911545 13.143086 162.873459 13.143086 175.344475 
C 13.143086 187.815491 18.097873 199.777406 26.916213 208.595746 
C 35.734553 217.414086 47.696467 222.368873 60.167483 222.368873 
z
" clip-path="url(#p752c5936b7)" style="fill: #d0d0e0; stroke: #000000; stroke-linejoin: miter"/>
   </g>
   <g id="patch_145">
    <path d="M 308.127888 275.427251 
C 320.598904 275.427251 332.560818 270.472464 341.379158 261.654124 
C 350.197498 252.835784 355.152285 240.87387 355.152285 228.402854 
C 355.152285 215.931838 350.197498 203.969924 341.379158 195.151584 
C 332.560818 186.333244 320.598904 181.378457 308.127888 181.378457 
C 295.656872 181.378457 283.694957 186.333244 274.876617 195.151584 
C 266.058277 203.969924 261.10349 215.931838 261.10349 228.402854 
C 261.10349 240.87387 266.058277 252.835784 274.876617 261.654124 
C 283.694957 270.472464 295.656872 275.427251 308.127888 275.427251 
z
" clip-path="url(#p752c5936b7)" style="fill: #d0d0e0; stroke: #000000; stroke-linejoin: miter"/>
   </g>
   <g id="patch_146">
    <path d="M 210.731327 306.266941 
L 205.491167 306.266941 
" clip-path="url(#p752c5936b7)" style="fill: #1f77b4; stroke: #000000; stroke-linejoin: miter"/>
   </g>
   <g id="patch_147">
    <path d="M 210.731327 306.266941 
L 205.491167 306.266941 
" clip-path="url(#p752c5936b7)" style="fill: #1f77b4; stroke: #000000; stroke-linejoin: miter"/>
   </g>
   <g id="patch_148">
    <path d="M 356.469265 296.438264 
L 355.113011 297.842361 
" clip-path="url(#p752c5936b7)" style="fill: #1f77b4; stroke: #000000; stroke-linejoin: miter"/>
   </g>
   <g id="patch_149">
    <path d="M 356.469265 296.438264 
L 355.113011 297.842361 
" clip-path="url(#p752c5936b7)" style="fill: #1f77b4; stroke: #000000; stroke-linejoin: miter"/>
   </g>
   <g id="patch_150">
    <path d="M 254.399329 353.291338 
C 266.870345 353.291338 278.832259 348.336551 287.650599 339.518211 
C 296.468939 330.699871 301.423726 318.737957 301.423726 306.266941 
C 301.423726 293.795925 296.468939 281.834011 287.650599 273.015671 
C 278.832259 264.197331 266.870345 259.242544 254.399329 259.242544 
C 241.928313 259.242544 229.966398 264.197331 221.148058 273.015671 
C 212.329719 281.834011 207.374931 293.795925 207.374931 306.266941 
C 207.374931 318.737957 212.329719 330.699871 221.148058 339.518211 
C 229.966398 348.336551 241.928313 353.291338 254.399329 353.291338 
z
" clip-path="url(#p752c5936b7)" style="fill: #d0d0e0; stroke: #000000; stroke-linejoin: miter"/>
   </g>
   <g id="patch_151">
    <path d="M 353.756758 299.246457 
L 352.400505 300.650554 
" clip-path="url(#p752c5936b7)" style="fill: #1f77b4; stroke: #000000; stroke-linejoin: miter"/>
   </g>
   <g id="patch_152">
    <path d="M 353.756758 299.246457 
L 352.400505 300.650554 
" clip-path="url(#p752c5936b7)" style="fill: #1f77b4; stroke: #000000; stroke-linejoin: miter"/>
   </g>
   <g id="patch_153">
    <path d="M 152.743646 222.368873 
C 165.214662 222.368873 177.176577 217.414086 185.994916 208.595746 
C 194.813256 199.777406 199.768044 187.815491 199.768044 175.344475 
C 199.768044 162.873459 194.813256 150.911545 185.994916 142.093205 
C 177.176577 133.274865 165.214662 128.320078 152.743646 128.320078 
C 140.27263 128.320078 128.310716 133.274865 119.492376 142.093205 
C 110.674036 150.911545 105.719249 162.873459 105.719249 175.344475 
C 105.719249 187.815491 110.674036 199.777406 119.492376 208.595746 
C 128.310716 217.414086 140.27263 222.368873 152.743646 222.368873 
z
" clip-path="url(#p752c5936b7)" style="fill: #d0d0e0; stroke: #000000; stroke-linejoin: miter"/>
   </g>
   <g id="patch_154">
    <path d="M 351.044252 302.054651 
L 349.687998 303.458748 
" clip-path="url(#p752c5936b7)" style="fill: #1f77b4; stroke: #000000; stroke-linejoin: miter"/>
   </g>
   <g id="patch_155">
    <path d="M 351.044252 302.054651 
L 349.687998 303.458748 
" clip-path="url(#p752c5936b7)" style="fill: #1f77b4; stroke: #000000; stroke-linejoin: miter"/>
   </g>
   <g id="patch_156">
    <path d="M 305.05421 306.266941 
L 299.81405 306.266941 
" clip-path="url(#p752c5936b7)" style="fill: #1f77b4; stroke: #000000; stroke-linejoin: miter"/>
   </g>
   <g id="patch_157">
    <path d="M 305.05421 306.266941 
L 299.81405 306.266941 
" clip-path="url(#p752c5936b7)" style="fill: #1f77b4; stroke: #000000; stroke-linejoin: miter"/>
   </g>
   <g id="patch_158">
    <path d="M 315.534531 306.266941 
L 310.294371 306.266941 
" clip-path="url(#p752c5936b7)" style="fill: #1f77b4; stroke: #000000; stroke-linejoin: miter"/>
   </g>
   <g id="patch_159">
    <path d="M 315.534531 306.266941 
L 310.294371 306.266941 
" clip-path="url(#p752c5936b7)" style="fill: #1f77b4; stroke: #000000; stroke-linejoin: miter"/>
   </g>
   <g id="patch_160">
    <path d="M 326.014851 306.266941 
L 320.774691 306.266941 
" clip-path="url(#p752c5936b7)" style="fill: #1f77b4; stroke: #000000; stroke-linejoin: miter"/>
   </g>
   <g id="patch_161">
    <path d="M 326.014851 306.266941 
L 320.774691 306.266941 
" clip-path="url(#p752c5936b7)" style="fill: #1f77b4; stroke: #000000; stroke-linejoin: miter"/>
   </g>
   <g id="patch_162">
    <path d="M 336.495171 306.266941 
L 331.255011 306.266941 
" clip-path="url(#p752c5936b7)" style="fill: #1f77b4; stroke: #000000; stroke-linejoin: miter"/>
   </g>
   <g id="patch_163">
    <path d="M 336.495171 306.266941 
L 331.255011 306.266941 
" clip-path="url(#p752c5936b7)" style="fill: #1f77b4; stroke: #000000; stroke-linejoin: miter"/>
   </g>
   <g id="patch_164">
    <path d="M 348.331745 304.862844 
L 346.975492 306.266941 
" clip-path="url(#p752c5936b7)" style="fill: #1f77b4; stroke: #000000; stroke-linejoin: miter"/>
   </g>
   <g id="patch_165">
    <path d="M 348.331745 304.862844 
L 346.975492 306.266941 
" clip-path="url(#p752c5936b7)" style="fill: #1f77b4; stroke: #000000; stroke-linejoin: miter"/>
   </g>
   <g id="patch_166">
    <path d="M 346.975492 306.266941 
L 341.735332 306.266941 
" clip-path="url(#p752c5936b7)" style="fill: #1f77b4; stroke: #000000; stroke-linejoin: miter"/>
   </g>
   <g id="patch_167">
    <path d="M 346.975492 306.266941 
L 341.735332 306.266941 
" clip-path="url(#p752c5936b7)" style="fill: #1f77b4; stroke: #000000; stroke-linejoin: miter"/>
   </g>
   <g id="patch_168">
    <path d="M 346.975492 306.266941 
L 346.975492 306.266941 
" clip-path="url(#p752c5936b7)" style="fill: #1f77b4; stroke: #000000; stroke-linejoin: miter"/>
   </g>
   <g id="patch_169">
    <path d="M 346.975492 306.266941 
L 346.975492 306.266941 
" clip-path="url(#p752c5936b7)" style="fill: #1f77b4; stroke: #000000; stroke-linejoin: miter"/>
   </g>
   <g id="patch_170">
    <path d="M 245.319809 222.368873 
C 257.790825 222.368873 269.75274 217.414086 278.57108 208.595746 
C 287.38942 199.777406 292.344207 187.815491 292.344207 175.344475 
C 292.344207 162.873459 287.38942 150.911545 278.57108 142.093205 
C 269.75274 133.274865 257.790825 128.320078 245.319809 128.320078 
C 232.848793 128.320078 220.886879 133.274865 212.068539 142.093205 
C 203.250199 150.911545 198.295412 162.873459 198.295412 175.344475 
C 198.295412 187.815491 203.250199 199.777406 212.068539 208.595746 
C 220.886879 217.414086 232.848793 222.368873 245.319809 222.368873 
z
" clip-path="url(#p752c5936b7)" style="fill: #d0d0e0; stroke: #000000; stroke-linejoin: miter"/>
   </g>
  </g>
 </g>
 <defs>
  <clipPath id="p752c5936b7">
   <rect x="3.00024" y="71.844095" width="425.99952" height="288.31181"/>
  </clipPath>
 </defs>
</svg>
